<?xml version="1.0" encoding="iso-8859-1"?>
<!-- Generator: Adobe Illustrator 19.0.0, SVG Export Plug-In . SVG Version: 6.00 Build 0)  -->
<svg version="1.1" id="Layer_1" xmlns="http://www.w3.org/2000/svg" xmlns:xlink="http://www.w3.org/1999/xlink" x="0px" y="0px"
	 viewBox="0 0 511.988 511.988" style="enable-background:new 0 0 511.988 511.988;" xml:space="preserve">
<rect x="123.433" y="11.359" style="fill:#ED5564;" width="321.98" height="379.62"/>
<polygon style="fill:#F5F7FA;" points="85.44,395.655 68.441,408.983 63.442,439.981 87.44,458.979 437.419,458.979 
	437.419,395.655 "/>
<polygon style="fill:#656D78;" points="91.44,11.359 68.441,23.998 68.441,408.983 85.44,390.983 117.438,390.983 117.438,11.359 
	"/>
<g>
	<path style="fill:#FFCE54;" d="M117.438,430.981v73.996c0,0,27.999-14,36.998-15c9-1,25.998,9,25.998,9v-67.996H117.438z"/>
	<polygon style="fill:#FFCE54;" points="176.435,213.487 171.935,229.986 196.433,246.485 219.932,236.485 228.931,216.987 	"/>
	<polygon style="fill:#FFCE54;" points="329.427,210.175 324.927,226.674 349.425,243.173 372.923,233.173 381.923,213.674 	"/>
</g>
<g>
	<path style="fill:#080808;" d="M447.981,405.327c5.891,0,10.656-4.781,10.656-10.672V10.671C458.637,4.78,453.871,0,447.981,0
		H96.003c-23.53,0-42.654,19.155-42.654,42.669v383.984c0,23.53,19.124,42.67,42.654,42.67h10.655v31.998
		c0,3.438,1.656,6.655,4.438,8.655s6.358,2.547,9.608,1.469l28.639-9.546l28.624,9.546c1.094,0.359,2.233,0.531,3.374,0.531
		c2.203,0,4.391-0.688,6.219-2c2.781-2,4.438-5.218,4.438-8.655v-31.998h234.643h10.686h10.656c5.891,0,10.656-4.781,10.656-10.672
		s-4.766-10.671-10.656-10.671v-42.653H447.981z M437.325,383.984h-10.686H128.001V21.342h309.324V383.984z M74.66,42.669
		c0-11.765,9.577-21.327,21.343-21.327h10.655v362.642H96.003c-7.766,0-15.062,2.094-21.343,5.749v-48.402
		c5.906,0,10.687-4.781,10.687-10.672s-4.78-10.671-10.687-10.671v-42.653c5.906,0,10.687-4.781,10.687-10.68
		c0-5.891-4.78-10.671-10.687-10.671V213.33c5.906,0,10.687-4.781,10.687-10.671c0-5.891-4.78-10.671-10.687-10.671v-42.654
		c5.906,0,10.687-4.781,10.687-10.671c0-5.891-4.78-10.671-10.687-10.671V85.338c5.906,0,10.687-4.781,10.687-10.671
		c0-5.891-4.78-10.671-10.687-10.671C74.66,63.996,74.66,42.669,74.66,42.669z M170.654,486.509l-17.952-5.968
		c-2.188-0.734-4.547-0.734-6.733,0l-17.968,5.968v-49.184h42.653V486.509z M191.997,447.98v-10.655
		c5.89,0,10.655-4.781,10.655-10.672s-4.766-10.671-10.655-10.671h-85.339c-5.875,0-10.655,4.78-10.655,10.671
		s4.78,10.672,10.655,10.672v10.655H96.003c-11.766,0-21.343-9.562-21.343-21.327c0-11.765,9.577-21.326,21.343-21.326H426.64
		v10.655h-74.652c-5.891,0-10.656,4.78-10.656,10.671s4.766,10.672,10.656,10.672h74.652v10.655H191.997z"/>
	<path style="fill:#080808;" d="M160.546,209.956c-0.016,0.031-0.016,0.031-0.016,0.062c-0.078,0.234-0.141,0.469-0.188,0.719
		c-0.031,0.109-0.078,0.219-0.094,0.344c-0.047,0.188-0.062,0.359-0.094,0.547c-0.031,0.172-0.062,0.359-0.094,0.546
		c0,0.125-0.016,0.25-0.031,0.375c0,0.234-0.031,0.469-0.031,0.719c0,0.016,0,0.031,0,0.062c0,23.53,19.14,42.654,42.653,42.654
		c23.53,0,42.685-19.124,42.685-42.654c0-0.031-0.016-0.047-0.016-0.062c0-0.25-0.016-0.5-0.031-0.734
		c-0.016-0.125-0.016-0.234-0.031-0.359c-0.016-0.187-0.047-0.375-0.078-0.546c-0.031-0.188-0.062-0.359-0.094-0.547
		c-0.031-0.125-0.062-0.234-0.094-0.344c-0.062-0.25-0.125-0.484-0.188-0.719c-0.016-0.031-0.016-0.031-0.031-0.062l-27.311-81.964
		h49.186v149.343h-53.311c-5.905,0-10.687,4.781-10.687,10.655c0,5.905,4.781,10.671,10.687,10.671h127.992
		c5.875,0,10.656-4.766,10.656-10.671c0-5.874-4.781-10.655-10.656-10.655h-53.34V127.992h49.2l-27.327,81.964
		c0,0.031,0,0.031-0.016,0.062c-0.078,0.234-0.141,0.469-0.203,0.719c-0.016,0.109-0.062,0.219-0.078,0.344
		c-0.047,0.188-0.062,0.359-0.094,0.547c-0.031,0.172-0.062,0.359-0.078,0.546c-0.031,0.125-0.031,0.234-0.031,0.359
		c-0.016,0.234-0.031,0.484-0.031,0.734c0,0.016,0,0.031,0,0.062c0,23.53,19.125,42.654,42.654,42.654s42.654-19.124,42.654-42.654
		c0-0.031,0-0.047,0-0.062c0-0.25-0.016-0.5-0.031-0.734c0-0.125,0-0.234-0.031-0.359c-0.016-0.187-0.047-0.375-0.078-0.546
		c-0.031-0.188-0.047-0.359-0.094-0.547c-0.016-0.125-0.062-0.234-0.078-0.344c-0.062-0.25-0.125-0.484-0.203-0.719
		c-0.016-0.031-0.016-0.031-0.016-0.062l-31.936-95.775c0-0.016,0-0.031,0-0.047l-0.062-0.172c-0.031-0.062-0.062-0.125-0.094-0.203
		c-0.031-0.141-0.078-0.266-0.125-0.391c-0.062-0.109-0.094-0.219-0.156-0.328c-0.031-0.109-0.078-0.203-0.125-0.297
		c-0.062-0.094-0.094-0.203-0.156-0.312c-0.062-0.094-0.109-0.203-0.172-0.312c-0.047-0.094-0.109-0.203-0.172-0.312
		c-0.062-0.094-0.125-0.188-0.188-0.281c-0.063-0.093-0.109-0.172-0.172-0.266c-0.078-0.109-0.141-0.203-0.234-0.312
		c-0.062-0.078-0.125-0.172-0.203-0.266c-0.062-0.078-0.125-0.156-0.188-0.219c-0.078-0.109-0.172-0.203-0.25-0.312
		c-0.078-0.078-0.172-0.156-0.25-0.25c-0.078-0.062-0.141-0.125-0.203-0.203c-0.094-0.078-0.172-0.172-0.266-0.25
		s-0.188-0.172-0.297-0.25c-0.062-0.062-0.141-0.125-0.219-0.188c-0.094-0.078-0.188-0.141-0.281-0.203
		c-0.094-0.094-0.188-0.156-0.297-0.234c-0.094-0.062-0.172-0.109-0.266-0.172c-0.094-0.063-0.188-0.125-0.281-0.188
		c-0.109-0.062-0.219-0.125-0.312-0.188c-0.109-0.046-0.219-0.093-0.312-0.156c-0.109-0.062-0.219-0.109-0.328-0.156
		c-0.094-0.047-0.188-0.094-0.281-0.125c-0.109-0.062-0.219-0.109-0.328-0.156c-0.125-0.047-0.266-0.094-0.391-0.141
		c-0.078-0.016-0.141-0.047-0.203-0.078c-0.031,0-0.047,0-0.062-0.016c-0.109-0.031-0.219-0.062-0.312-0.094
		c-0.156-0.047-0.297-0.078-0.438-0.109c-0.109-0.031-0.219-0.062-0.312-0.094c-0.078,0-0.156-0.031-0.25-0.031
		c-0.156-0.031-0.312-0.062-0.469-0.078c-0.125-0.016-0.25-0.047-0.375-0.047c-0.062-0.016-0.109-0.031-0.156-0.031
		c-0.156,0-0.328-0.016-0.484-0.031c-0.141,0-0.297,0-0.453,0c-0.031,0-0.031-0.016-0.062-0.016h-0.188h-0.031h-63.777V95.994
		c0-5.875-4.781-10.656-10.656-10.656c-5.905,0-10.686,4.781-10.686,10.656v10.671h-63.747c-0.031,0-0.062,0-0.078,0h-0.172
		c-0.016,0-0.031,0.016-0.062,0.016c-0.141,0-0.281,0-0.422,0c-0.172,0.016-0.328,0.031-0.516,0.031
		c-0.047,0-0.094,0.016-0.156,0.031c-0.125,0-0.234,0.031-0.344,0.031c-0.172,0.031-0.344,0.062-0.5,0.094
		c-0.094,0-0.156,0.031-0.25,0.031c-0.094,0.031-0.188,0.062-0.281,0.094c-0.156,0.031-0.312,0.062-0.469,0.109
		c-0.094,0.031-0.188,0.062-0.297,0.094c-0.016,0.016-0.047,0.016-0.062,0.016c-0.078,0.031-0.141,0.062-0.203,0.078
		c-0.125,0.047-0.266,0.094-0.406,0.141c-0.094,0.062-0.219,0.094-0.312,0.156c-0.094,0.031-0.188,0.078-0.281,0.125
		c-0.109,0.047-0.219,0.094-0.344,0.156c-0.094,0.062-0.188,0.109-0.297,0.156c-0.109,0.062-0.203,0.125-0.297,0.188
		s-0.203,0.125-0.297,0.188s-0.172,0.109-0.266,0.172c-0.109,0.078-0.203,0.141-0.312,0.219c-0.094,0.078-0.188,0.141-0.28,0.219
		c-0.062,0.062-0.141,0.125-0.219,0.188c-0.094,0.078-0.188,0.156-0.281,0.234c-0.094,0.094-0.188,0.188-0.281,0.266
		c-0.062,0.078-0.125,0.141-0.188,0.203c-0.094,0.094-0.172,0.172-0.25,0.25c-0.094,0.094-0.172,0.203-0.25,0.312
		c-0.062,0.062-0.125,0.141-0.188,0.219c-0.078,0.094-0.156,0.172-0.219,0.266c-0.062,0.109-0.156,0.203-0.219,0.312
		c-0.062,0.094-0.125,0.188-0.188,0.266c-0.062,0.094-0.109,0.188-0.172,0.281c-0.062,0.109-0.125,0.219-0.172,0.312
		c-0.062,0.109-0.125,0.219-0.188,0.312c-0.047,0.109-0.094,0.219-0.141,0.312c-0.047,0.093-0.094,0.188-0.141,0.297
		s-0.094,0.234-0.141,0.328c-0.047,0.125-0.094,0.25-0.141,0.375c-0.031,0.078-0.062,0.156-0.078,0.219l-0.047,0.172
		c-0.016,0.016-0.016,0.031-0.031,0.047L160.546,209.956z M369.189,202.66h-34.404l17.202-51.606L369.189,202.66z M351.987,234.658
		c-7.875,0-14.78-4.297-18.468-10.671h36.936C366.767,230.361,359.862,234.658,351.987,234.658z M202.652,151.053l17.218,51.606
		h-34.404L202.652,151.053z M202.652,234.658c-7.874,0-14.765-4.297-18.468-10.671h36.951
		C217.432,230.361,210.543,234.658,202.652,234.658z"/>
</g>
<g>
</g>
<g>
</g>
<g>
</g>
<g>
</g>
<g>
</g>
<g>
</g>
<g>
</g>
<g>
</g>
<g>
</g>
<g>
</g>
<g>
</g>
<g>
</g>
<g>
</g>
<g>
</g>
<g>
</g>
</svg>
