<?xml version="1.0" encoding="utf-8"?>
<!-- Designed by Vexels.com - 2020 All Rights Reserved - https://vexels.com/terms-and-conditions/  -->
<svg version="1.1" id="Capa_1" xmlns="http://www.w3.org/2000/svg" xmlns:xlink="http://www.w3.org/1999/xlink" x="0px" y="0px"
	 viewBox="0 0 1200 1200" enable-background="new 0 0 1200 1200" xml:space="preserve">
<g>
	<path fill="#555661" d="M183.663,212.586c-0.113,0.415-0.189,0.849-0.189,1.339c-0.019,5.657,0.717,11.37,1.584,17.008
		c-9.353,0.415-18.762,0.867-28.133,0.886c-0.132-4.657,0.245-9.277,0.302-13.916c0.641-1.376,1.018-2.904,1.508-4.337
		c1.15-3.262,2.546-6.373,4.299-9.372c2.187-3.734,5.525-8.862,9.824-11.05c1.207,3.602,2.979,7.09,4.676,10.427
		C178.892,206.269,180.872,210.38,183.663,212.586z"/>
	<path d="M1137.767,351.782c-1.414-0.377-4.676,2.357-6.864,4.224c0,3.847-0.038,7.693-0.226,11.559
		c-0.547,11.917-1.509,23.872-1.622,35.827c2.281,0.302,3.809,0.396,5.921-2.546c2.489-3.432,2.659-8.07,2.904-12.2
		c0.321-5.449,0.358-10.88,0.735-16.329c0.396-5.393,1.094-11.314,0.075-16.669C1138.427,354.366,1137.371,351.782,1137.767,351.782
		z M1145.649,344.598c5.6,6.298,4.394,17.555,3.865,25.267c-0.716,10.578,1.377,23.721-2.225,33.639
		c-2.753,7.58-10.333,12.539-17.461,11.276c0,0.886,0,1.772,0,2.696c0,4.224,0.283,8.598-1.15,12.634
		c-0.547,1.527-1.678,2.432-2.942,2.772c-0.377,0.547-0.849,1.037-1.49,1.32c-6.336,2.904-13.143,1.772-19.988,1.584
		c-5.242-0.132-10.616-0.094-15.858-0.735c-0.245,0.038-0.509,0.075-0.773,0.113c-3.036,12.011,0.038,26.625-7.09,36.864
		c-5.883,8.448-16.631,7.448-25.72,7.033c-2.847-0.132-5.299-1.867-6.128-4.657c-1.697-5.751,0.641-9.9-6.204-10.39
		c-2.508-0.189-4.959,0-7.429,0.132c0.094,2.489-0.151,4.978-0.188,7.542c-0.057,3.715-3.017,6.505-6.675,6.656
		c-18.913,0.754-38.806,3.884-57.606,1.207c-1.527-0.207-2.508-0.886-3.055-1.772c-3.262-2.055-3.62-7.165-3.092-11.483
		c-4.582-0.377-9.277-0.321-13.897-0.547c-0.358,0.754-0.679,1.395-0.962,2.282c-0.434,1.358-0.622,2.791-1.037,4.167
		c-0.019,0.038-0.038,0.057-0.038,0.094c-0.226,0.735-0.622,1.471-1.263,2.131c-6.241,6.43-19.422,6.128-27.775,6.373
		c-11.842,0.358-23.646-0.66-35.45-1.131c-16.82-0.679-33.979-2.96-50.912-2.564c-0.113,0.358-0.226,0.698-0.396,1.056
		c-8.504,17.763-32.979,19.346-39.07,38.278c-3.866,12.068-6.901,24.513-9.862,36.845c-3.79,15.896-8.127,32.659-8.127,49.12
		c0,7.335,3.602,12.577,5.468,19.422c1.942,7.071,0.754,16.348-2.414,22.891c-7.637,15.745-28.228,18.781-43.803,19.045
		c-21.232,0.358-42.181-1.622-63.451-0.453c-44.595,2.451-89.831,9.032-134.388,2.904c-9.749-1.358-18.517-3.903-26.87-9.24
		c-7.014-4.507-13.369-9.881-21.421-12.558c-20.572-6.864-43.916,5.581-52.609,24.852c-4.959,10.993-7.561,23.137-11.955,34.394
		c-4.186,10.729-7.58,21.571-11.031,32.546c-7.486,23.815-14.991,47.631-22.552,71.446c-7.58,23.91-15.99,47.574-22.948,71.691
		c-3.526,12.219-7.033,24.551-9.9,36.958c-2.451,10.578-1.49,21.458-3.847,31.98c-1.037,4.582-2.734,8.787-5.016,12.521
		c4.224,7.222,14.463,8.655,18.969,16.065c4.639,7.674,2.187,17.951-4.261,23.759c-6.883,6.185-16.895,7.467-25.588,9.221
		c-13.708,2.791-27.587,4.639-41.521,5.808c-29.133,2.451-58.303,2.885-87.53,2.904c-14.821,0.019-29.698,0.434-44.501-0.132
		c-11.804-0.434-23.608-2.263-35.393-3.319c-6.147-0.566-15.424-1.471-17.536-8.617c-0.962-3.281,0.283-6.619,1.565-9.598
		c1.131-2.678,5.242-7.957,2.168-9.503c-0.528-0.264-0.924-0.585-1.245-0.962c-0.547,0.377-1.094,0.811-1.659,1.339
		c-2.696,2.489-4.921,5.525-7.938,7.674c-5.317,3.809-10.22,3.602-16.103,0.943c-17.121-7.712-38.278-42.898-38.316-45.726
		c-0.283-22.741,1.527-45.538,4.299-68.09c2.621-21.44,7.335-42.521,10.145-63.922c2.564-19.497,4.261-38.938,9.24-58.039
		c4.582-17.536,9.899-35.223,16.612-52.062c13.614-34.205,33.432-65.299,55.814-94.394c0.849-1.094,1.697-2.206,2.564-3.3
		c-10.842-2.998-17.8-11.37-15.387-23.495c3.338-16.612,18.064-29.887,26.738-43.841c12.502-20.101,14.614-44.897,8.334-67.486
		c-5.713-20.516-21.779-45.971-45.481-46.895c-15.688-0.622-44.576,6.487-52.137-12.954c-3.884-9.994-0.905-22.533,0.83-32.715
		c2.206-12.803,5.921-21.138,16.989-28.19c0.547-0.358,1.113-0.49,1.659-0.453c-0.509-9.579-0.245-19.271-0.17-28.718
		c0.207-22.571,1.791-45.085,3.319-67.599c0.886-12.841-1.301-34.394,10.333-43.501c5.317-4.167,12.125-4.563,18.611-4.676
		c8.523-0.132,17.367,0.113,25.833,1.527c1.282-6.034,5.525-12.803,7.938-16.405c4.846-7.241,11.502-13.784,20.666-14.161
		c3.375-0.132,5.091,2.357,5.185,4.978c1.904,3.3,3.394,6.788,5.185,10.145c1.075,2.036,2.187,4.167,3.564,6.015
		c0.113,0.151,0.566,0.528,1.113,1.169c0.811,0.924,1.584,2.018,1.81,3.243c0.019,0.113,0.019,0.226,0.038,0.339
		c58.718-1.358,117.587-0.207,176.324-0.358c29.925-0.075,59.868-0.075,89.793-0.113c14.802-0.019,29.604-0.019,44.387-0.057
		c14.35-0.019,29.114-1.15,43.388,0c1.263,0.113,2.3,0.49,3.168,1.018c1.659,0.057,3.338,0.867,4.45,2.564
		c1.622,2.508,1.999,5.657,2.3,8.58c0.075,0.641,0.17,1.263,0.264,1.904c8.07-1.15,16.631-0.415,24.551-0.471
		c13.746-0.113,27.511-0.075,41.257-0.113c13.746-0.019,27.511-0.038,41.257-0.057c6.883,0,13.746,0,20.629-0.019
		c3.941-0.019,7.769-0.377,11.521-0.057c0.17-2.319,0.547-4.657,0.641-7.033c0.207-4.884,5.355-6.468,8.655-4.865
		c14.519-1.301,29.34-0.509,43.916-0.641c14.35-0.113,28.699-0.471,43.068-0.547c28.699-0.151,57.417-0.283,86.116-0.283
		c29.34,0,58.662-0.132,88.002,0.057c12.502,0.094,25.022,0.189,37.543,0.302c11.37,0.075,23.25-0.773,34.526,1.094
		c1.565-6.864,4.733-13.52,10.559-16.329c7.316-3.507,20.591-0.66,28.718,0.113c10.748,1.018,30.604,3.206,36.845,13.652
		c1.188-0.132,2.47,0.038,3.771,0.66c18.328,8.768,21.628,32.018,21.911,50.176c0.415,25.72,0.113,51.93-10.805,75.613
		c-0.17,0.377-0.396,0.698-0.66,0.981c0.943,3.224,1.075,6.901,1.075,10.314C1135.768,340.544,1141.387,339.79,1145.649,344.598z
		 M1128.018,262.706c0-1.961-0.019-4.092-0.075-6.279c-17.725,0.358-35.506,0.396-53.25,0.509
		c-17.027,0.113-35.582,2.055-52.364-0.867c-2.583-0.453-3.545-3.319-2.904-5.581c0.396-1.358,1.358-2.508,2.904-2.772
		c16.801-2.923,35.299-0.981,52.364-0.886c17.555,0.113,35.186,0.151,52.741,0.509c-0.434-4.28-1.15-8.636-2.376-12.671
		c-13.652,1.263-27.832,0.264-41.484,0.245c-14.991,0-30-0.019-45.01-0.038c-14.991-0.019-30,0.057-45.01-0.057
		c-14.859-0.113-30.245,0.66-45.01-1.037c-4.243-0.49-4.243-6.109,0-6.6c14.764-1.716,30.151-0.943,45.01-1.056
		c15.01-0.094,30.019-0.038,45.01-0.057c1.923,0,4.846-0.981,4.582-1.584c-2.451-0.132-4.997-1.886-4.997-4.714
		c0-0.566-22.288-0.924-33.243-0.83c-13.143,0.094-26.286,0.207-39.409,0.302c-28.718,0.17-57.417,0.057-86.135,0.057
		c-29.321-0.019-58.662-0.151-88.002-0.321c-13.727-0.057-27.455-0.415-41.182-0.528c-11.615-0.094-23.401,0.377-35.054-0.075
		c-0.566,9.786,0.585,19.931,1.565,30.076c0.585-0.377,1.301-0.641,2.168-0.698c24.966-1.584,50.421-0.453,75.425-0.226
		c25.098,0.226,50.403-0.509,75.425,1.245c4.035,0.264,4.016,5.959,0,6.241c-25.022,1.735-50.327,0.999-75.425,1.244
		c-25.003,0.226-50.459,1.339-75.425-0.245c-0.566-0.038-1.075-0.17-1.527-0.358c0.849,10.842,0.962,21.59-2.018,31.754
		c-5.732,19.516-28.643,19.045-45.651,20.836c-25.173,2.64-50.799,2.753-76.047,1.942c-9.051-0.302-18.159-0.453-27.209-0.905
		c-6.449-0.321-13.991-0.962-18.385-6.26c-0.339-0.396-0.566-0.849-0.735-1.301c-0.358-0.415-0.622-0.924-0.735-1.546
		c-2.564-13.576-1.075-28.529-1.188-42.332c-0.094-12.219-1.565-25.494,0.038-37.788c0-0.207-0.019-0.434-0.038-0.66
		c-14.18,0.943-28.793-0.113-42.973-0.132c-14.199-0.019-28.397-0.038-42.596-0.057c-29.925-0.019-59.868-0.226-89.793-0.094
		c-56.041,0.207-106.745,2.489-176.23-0.377c0.49,5.506,1.282,11.031,0.981,16.48c-0.038,0.509-0.17,1.018-0.358,1.527
		c2.904,0.038,5.789,0.057,8.674,0.057c5.657-0.038,5.638,8.787,0,8.768c-23.023-0.094-47.235,1.867-70.164-0.754
		c-0.622-0.057-1.245-0.132-1.867-0.207c-4.393-0.566-4.375-6.298,0-6.845c5.732-0.717,11.559-1.131,17.423-1.358
		c-0.019-0.075-0.038-0.132-0.038-0.189c-0.264-3.187-0.358-6.449-0.264-9.711c-4.771,0.754-32.678-0.603-40.315-1.772
		c-0.83,1.169-1.471,2.508-1.886,4.073c-1.678,6.204-1.207,13.143-1.339,19.573c4.412-0.151,8.844,0.132,13.275,0.321
		c4.752,0.207,9.692,0.113,14.5,0.603c2.168,0.207,4.318,0.547,6.411,1.094c3.375,0.867,3.394,6.015,0,6.883
		c-6.751,1.697-14.01,1.037-20.912,0.717c-4.525-0.207-9.108-0.189-13.633-0.547c-0.189,3.847-0.396,7.693-0.603,11.521
		c6.147-0.264,12.634-0.528,18.536,1.094c3.206,0.867,3.206,5.6,0,6.468c-6.053,1.678-12.709,1.358-18.988,1.075
		c0,0.17-0.019,0.358-0.019,0.528c-0.151,2.866-0.264,5.732-0.396,8.58c4.846-1.245,10.465-0.886,15.33-1.207
		c6.411-0.434,13.35-1.999,19.724-1.49c3.866,0.302,5.299,5.053,1.98,7.241c-5.468,3.602-13.048,3.903-19.403,4.243
		c-5.563,0.302-12.37,0.867-17.932-0.698c-0.264,7.392-0.453,14.764-0.528,22.137c25.098,0.339,50.195,0.151,75.293-0.189
		c0.075-9.541,4.318-19.497,6.449-28.737c2.376-10.333,4.525-20.704,6.223-31.169c-3.413-0.075-6.807-0.151-10.22-0.245
		c-4.827-0.132-4.808-7.335,0-7.486c7.806-0.207,15.594-0.339,23.401-0.415c12.841-0.113,25.701-0.075,38.561-0.075
		c54.815,0.038,109.611,1.018,164.426,1.32c43.256,0.264,86.588-0.358,129.806,1.565c4.261,0.189,4.243,6.411,0,6.6
		c-20.666,0.905-41.276,0.83-61.961,0.698c-42.936-0.264-85.89-0.189-128.844-0.226c0.509,0.717,0.754,1.659,0.547,2.753
		c-3.658,18.63-10.145,36.6-16.047,54.589c58.379,0.867,116.701,1.584,175.117,1.452c64.469-0.17,128.901-1.414,193.37-0.999
		c32.206,0.207,65.261,2.489,97.392,0.132c32.018-2.338,63.432-1.113,95.488-0.245c31.716,0.867,63.432,0.83,95.148,1.131
		c1.452,0.019,2.885,0.019,4.337,0.019c29.793,0.17,59.793-0.905,89.492,1.226c3.583,0.245,4.167,4.525,1.735,6.091
		c-0.453,0.321-1.037,0.509-1.735,0.566c-35.431,2.546-71.371,1.056-106.877,1.358c-35.506,0.321-70.956,0.547-106.443,1.848
		c-16.273,0.603-32.395,1.169-48.687,0.471c-16.292-0.717-32.357-1.829-48.687-1.772c-31.848,0.094-63.715,0.339-95.563,0.434
		c-64.469,0.189-128.901-1.188-193.37-1.131c-32.037,0.038-64.186-0.943-96.204,0.245c-16.782,0.641-33.583,1.037-50.384,1.282
		c0,0.207-0.019,0.415-0.075,0.622c-3.3,14.632-7.278,29.397-12.313,43.577c123.885,0.038,247.77-0.339,371.655-0.283
		c63.149,0.019,126.318,0.038,189.467,0.057c31.773,0.019,63.545,0.038,95.318,0.038c31.056,0.019,62.357-0.509,93.395,0.603
		c2.018,0.057,3.62,0.509,4.865,1.15c0.547-8.429,1.226-16.857,1.641-25.305c0.057-1.32,0.17-2.696,0.302-4.111
		c-0.038-0.49,0-0.999,0.132-1.471c0.415-4.45,0.867-9.089,0.302-13.18c-0.321-2.3,1.226-3.96,2.942-4.375
		c0.17-0.132,0.339-0.226,0.509-0.321c0.566-0.302,1.207-0.453,1.961-0.471c12.954-0.113,25.946,0,38.881-0.415
		c1.263-9.277,4.695-18.234,4.903-27.888C1127.83,285.069,1127.999,273.869,1128.018,262.706z M1122.456,350.519
		c0.189-5.751,0.471-11.861-1.339-17.159c-11.578-0.321-23.193-0.283-34.809-0.358c0.283,2.395,0.358,4.865,0.377,7.297
		c6.185-0.113,12.332-0.811,18.554-0.415c4.526,0.302,4.412,6.505,0,6.958c-6.279,0.641-12.37,1.678-18.63,1.754
		c-0.075,9.786-0.151,19.61-0.528,29.397c-0.453,11.163-1.056,22.326-1.603,33.489c-0.17,3.715-0.641,8.674-0.735,12.841
		c1.018,0.094,1.98,0.396,2.81,0.867c5.827-0.924,11.842-0.849,17.706-1.018c5.223-0.132,10.409-0.811,15.387,0.151
		c-0.151-2.282-0.075-4.582-0.075-6.845c0-3.488-0.151-6.581,0.943-9.711c-1.188-11.031,0.679-23.212,1.207-33.677
		c0.321-6.298,0.641-12.615,0.641-18.932C1121.758,353.706,1121.683,351.99,1122.456,350.519z M1105.07,215.867
		c1.508-11.955-20.006-12.841-28.133-13.652c-4.714-0.453-9.466-0.962-14.18-1.282c-4.601-0.302-8.297-1.131-11.333,2.791
		c-1.207,1.546-1.641,4.45-2.093,6.279c-0.717,2.791-1.056,5.638-1.414,8.504c12.445-0.019,24.871-0.226,37.316-0.396
		c6.468-0.075,13.199-0.528,19.912-0.528C1105.033,217.055,1104.976,216.489,1105.07,215.867z M1075.542,382.065
		c0.019-0.226,0.038-0.453,0.038-0.679c-1.15,0.471-2.602,0.792-4.412,0.849c-35.978,1.226-72.332,0.585-108.348,0.603
		c-34.922,0-69.824,0.019-104.746,0.038c-15.971,0-31.924,0-47.876,0c0.019,0.132,0.057,0.264,0.057,0.396
		c0.226,7.26-1.301,14.293-0.849,21.666c0.396,6.751,1.546,13.444,1.584,20.195c0.057,10.39,0.867,21.176-1.377,31.15
		c0.358,4.676,0.528,9.372,0.415,14.048c20.252-8.919,45.745-2.47,67.015-2.244c11.351,0.113,22.703,0.886,34.054,0.981
		c5.468,0.057,10.974,0,16.405-0.585c3.809-0.396,7.825-1.81,11.729-2.414c0.528-1.98,1.339-3.922,2.3-5.544
		c0.189-1.659,1.169-3.206,2.979-3.47c8.184-1.169,16.725-0.264,24.834-1.697c6.939-1.226,8.862,6.072,5.864,9.692
		c0.151,1.339,0.245,2.678,0.358,4.035c0.019,0.057,0.019,0.151,0.038,0.264c15.217-1.772,30.773-2.753,46.103-3.847
		c0.207-2.15,0.735-4.167,1.942-5.977c-0.038-2.131,1.15-4.356,3.432-4.978c7.58-2.055,18.026-3.526,25.399-0.189
		c6.053,2.734,6.468,7.109,7.392,12.181c5.412,0.151,10.013-0.358,11.747-6.845c2.301-8.674,1.641-17.517,3.715-26.135
		c-0.302-0.434-0.528-0.924-0.603-1.433c-1.886-10.767-1.207-22.477-0.339-33.885c-5.431,4.375-14.557,4.129-21.157,4.356
		c-9.013,0.321-18.969,0.792-27.851-1.037c-3.62-0.754-3.696-6.694,0-7.392c7.637-1.452,15.688-0.189,23.419-0.189
		c8.014,0,16.631-3.111,24.306-2.338c0.66,0.075,1.245,0.302,1.754,0.641C1075.127,388.816,1075.391,385.403,1075.542,382.065z
		 M801.316,382.895c-107.386,0.038-214.791,0.075-322.177,0c-63.036-0.038-126.091-0.283-189.128-0.245
		c-62.848,0.019-125.752-1.622-188.581-1.245c-3.13,1.15-7.033,0.151-8.07-4.016c-1.282-5.129-2.093-10.39-2.602-15.688
		c-9.899,9.9-11.05,25.663-11.521,39.013c-0.207,5.657-0.49,12.389,4.808,15.82c4.261,2.753,10.145,2.791,15.047,2.866
		c9.522,0.17,19.082-1.358,28.586-0.603c8.881,0.698,16.461,4.676,23.476,10.013c1.131,0.849,4.393,2.772,4.94,3.149
		c26.418,17.8,37.656,52.439,41.653,82.684c2.168,16.405,2.583,33.866-3.375,49.573c-6.128,16.16-18.347,30.321-28.812,43.841
		c-24.042,31.113-46.122,64.337-60.868,100.956c-7.392,18.366-13.086,37.788-17.895,56.983c-0.905,3.545-1.64,7.128-2.319,10.71
		c3.564-1.131,7.09-2.357,10.559-3.752c4.073-1.622,8.24-3.526,11.898-5.977c2.96-1.98,4.978-4.035,8.523-4.752
		c0.49-0.094,0.962-0.075,1.414-0.019c7.052-18.611,15.142-36.807,23.665-54.853c11.766-24.89,24.815-50.912,44.406-70.673
		c2.847-2.866,7.901,0.905,5.638,4.356c-30.905,47.386-55.701,100.428-72.2,154.564c-9.013,29.491-15.971,60.057-18.573,90.83
		c-0.585,7.052-0.886,14.104-1.018,21.176c0.792,1.32,0.867,3.187-0.075,4.469c-0.226,23.269,0.999,46.575-0.999,69.73
		c-0.302,3.319,3.715,2.64,7.825-0.905c5.902-5.091,11.974-6.562,19.742-7.448c11.295-1.282,24.004-2.3,35.336-0.867
		c11.219,1.395,21.703,2.998,33.074,2.81c12.728-0.226,25.456-0.717,38.184-1.075c26.323-0.735,52.1-3.413,78.178-6.713
		c1.641-0.189,3.338-0.358,5.053-0.547c0.207-14.01,4.563-26.644,8.146-40.013c3.809-14.199,6.015-28.831,9.221-43.181
		c3.243-14.519,7.222-29.057,11.106-43.426c3.866-14.35,7.882-28.529,13.275-42.408c1.376-3.564,7.146-2.036,5.789,1.603
		c-10.145,27.172-16.876,54.438-22.288,82.835c-2.659,13.954-5.996,27.775-8.58,41.729c-2.395,12.879-5.261,26.493-5.016,39.692
		c0.17,0.264,0.302,0.547,0.396,0.849c1.867-0.66,3.62-1.527,5.223-2.696c7.693-5.6,10.069-15.858,10.691-24.758
		c1.622-22.797,7.731-44.482,14.067-66.411c13.369-46.386,28.19-92.32,42.54-138.404c6.392-20.534,13.463-41.012,20.855-61.207
		c-2.225,0.151-4.469,0.226-6.732,0.207c-2.96-0.038-6.053,0.151-8.919-0.49c-9.937,27.983-16.443,57.002-26.323,84.947
		c-1.452,4.111-7.26,2.47-6.487-1.772c5.525-29.868,14.576-59.491,25.399-87.832c0.679-1.791,2.131-2.659,3.658-2.847
		c3.866-1.754,7.561-1.056,11.747-0.905c3.79,0.132,7.58,0.057,11.351-0.113c5.468-10.918,13.69-19.893,24.23-25.908
		c-22.42,0-26.512,14.953-27.077,15.669c-3.243,4.092-10.182-1.358-7.222-5.581c17.159-24.306-9.843-60.528,10.823-82.873
		c16.254-17.574,39.673,4.45,58.812,2.074c1.584-27.455,13.784-55.663,35.242-69.73c15.462-10.145,33.187-3.734,34.94,15.179
		c0.867,9.409-1.169,18.856-1.169,28.284c0.019,9.899,0.981,19.78,3.734,29.302c4.884,16.876,26.455,42.125,47.197,35.299
		c1.452-0.471,2.338-1.245,2.998-1.848c-0.792-0.585-1.546-1.358-2.263-1.942c-7.467-5.996-14.764-11.672-20.685-19.309
		c-19.912-25.663-16.857-57.606-5.638-86.097c-5.336,0.094-10.654,0.132-15.971-0.019c-4.733-0.132-4.695-7.09,0-7.316
		c6.92-0.321,13.822-0.849,20.723-1.414c1.037-0.547,2.206-0.585,3.356-0.283c12.049-0.999,24.079-2.036,36.223-2.112
		c17.235-0.094,34.507-0.283,51.685-1.697c11.465-0.924,22.609-3.432,33.96-4.959c9.39-1.263,17.857-0.66,24.89,2.546
		c10.107-0.962,20.855-1.565,30.66,0.132c3.62,0.622,3.62,6.694,0,7.316c-6.43,1.113-13.237,1.226-20.025,0.905
		c2.131,2.659,3.997,5.789,5.506,9.504c6.298,15.368,6.015,33.055,4.431,49.29c-1.603,16.48-4.827,32.942-9.862,48.743
		c-3.055,9.579-7.165,21.496-14.576,28.699c-12.257,11.917-36.996,7.373-52.382,8.429c-26.38,1.81-52.646,2.263-79.083,3.036
		c-22.797,0.679-45.858,2.451-68.599-0.264c-19.724-2.338-31.603-11.974-39.221-30.151c-0.019,0.226-0.038,0.434-0.038,0.641
		c-0.528,7.561-0.622,16.65-3.338,24.061c7.41,1.452,14.557,4.412,21.119,8.655c6.958,4.488,13.275,9.673,21.364,12.068
		c9.975,2.942,21.1,3.206,31.452,3.677c43.294,1.999,86.38-4.337,129.599-5.261c20.252-0.434,42.351,4.601,62.15-0.698
		c10.069-2.696,16.575-8.052,16.876-18.856c0.189-6.6-3.96-11.974-5.223-18.328c-2.357-11.766-0.038-24.57,1.867-36.223
		c2.338-14.218,5.808-28.265,9.485-42.2c2.64-9.937,4.62-21.666,9.994-30.509c4.959-8.202,13.954-12.332,21.986-17.329
		c-6.091-0.075-12.181-0.189-18.234-0.754c-4.771-0.434-4.752-6.977,0-7.429c4.111-0.377,8.221-0.547,12.332-0.641
		c-0.075-1.018-0.151-2.018-0.207-3.036c-2.583,1.433-5.657-2.206-4.393-5.053c7.976-17.951,6.392-35.167,3.451-54.08
		C798.733,405.24,795.093,390.777,801.316,382.895z M740.995,531.633c0.132-11.785-0.226-26.908-7.75-36.751
		c-10.71-13.991-35.563-3.356-49.705-1.697c-25.38,2.942-51.44,1.961-76.933,1.471c-5.563-0.113-11.125-0.038-16.688,0.075
		c-15.236,31.81-17.612,66.996,10.39,92.018c4.13,3.696,12.351,7.09,15.123,11.955c3.168,5.581-1.886,11.37-6.6,13.803
		c-15.669,8.052-36.26-0.396-47.404-12.087c-9.183-9.654-15.349-23.985-18.668-36.732c-2.508-9.654-3.828-19.874-3.979-29.831
		c-0.113-6.845,1.282-13.708,0.754-20.534c-1.056-13.784-14.764-7.203-21.458-1.037c-7.109,6.562-12.483,15.028-16.084,23.966
		c-7.486,18.573-10.465,41.729-4.375,61.113c2.791,8.938,7.75,19.026,15.99,24.155c8.448,5.242,18.95,3.752,28.435,4.186
		c22.307,0.999,44.444-0.245,66.732-0.113c24.079,0.151,47.763-1.075,71.785-2.018c13.294-0.528,35.601,0.886,42.54-11.691
		c5.732-10.39,8.844-22.986,11.653-34.413C738.412,562.481,740.825,547.095,740.995,531.633z M709.034,277.734
		c0.434-9.296-0.66-18.95-1.414-28.284c-25.682,0.471-51.496-0.019-77.197-0.132c-24.532-0.113-50.025,1.81-74.557-0.245
		c-0.113,2.96-0.207,5.902-0.226,8.768c-0.113,12.709,1.112,26.323-0.679,39.013c5.336,3.168,12.087,2.489,18.159,2.376
		c8.693-0.151,17.385,0.509,26.078,0.66c19.403,0.339,38.938,0.189,58.303-1.037C673.113,297.873,708.016,299.23,709.034,277.734z
		 M707.035,240.682c-0.189-3.206-0.339-6.411-0.509-9.617c-0.547,0.396-1.131,0.717-1.754,0.886
		c-0.849,0.226-1.678,0.245-2.432,0.094c-5.977,1.999-12.464,1.094-18.781,1.075c-6.241-0.019-12.502-0.019-18.743-0.038
		c-13.746-0.019-27.511-0.038-41.257-0.057c-13.746-0.019-27.511,0-41.257-0.113c-8.391-0.057-17.499,0.754-25.965-0.679
		c0.019,2.923-0.057,5.864-0.151,8.806c24.419-1.999,49.799-0.094,74.237-0.207C655.916,240.719,681.542,240.248,707.035,240.682z
		 M607.38,602.739C607.852,603.324,608.87,603.588,607.38,602.739L607.38,602.739z M480.855,602.89
		c0.735-9.749,0.792-19.535,1.716-29.265c-7.863,0.924-15.519-1.188-23.325-3.036c-9.466-2.244-20.817-4.469-26.304,5.619
		c-6.751,12.351-3.375,27.851-2.904,41.201c0.17,4.846,0.094,9.711-0.547,14.406c10.691-3.997,35.902-2.715,36.524-1.81
		c3.771-0.735,7.542-1.037,11.314-0.943C477.725,620.408,480.195,611.545,480.855,602.89z M358.988,989.857
		c1.716-2.451,1.678-5.468-1.565-9.145c-4.469-5.053-11.238-6.581-15.632-11.465c-1.226,1.075-2.546,2.036-3.922,2.923
		c3.545,1.584,6.788,3.771,9.805,6.26c3.979,3.262,8.542,6.883,11.257,11.314C358.95,989.781,358.969,989.819,358.988,989.857z
		 M343.94,997.663c3.036-0.83,6.373-1.923,9.24-3.338c-8.052-3.469-13.237-12.219-21.892-14.991
		c-1.622-0.528-2.546-1.64-2.923-2.904c-1.226,0.339-2.47,0.66-3.752,0.886c-1.49,0.283-2.998,0.509-4.507,0.735
		c3.13,3.13,6.317,6.204,9.617,9.145c2.885,2.564,5.845,5.148,9.126,7.203C340.546,995.457,342.658,996.117,343.94,997.663z
		 M339.132,258.557c-9.881-0.019-19.78-0.038-29.68-0.075c0.453,0.867,0.622,1.923,0.339,3.149c-4.243,18.29-9.9,36.11-15.839,53.91
		c6.619,0.038,13.237,0.057,19.837,0.151c2.15,0.038,4.299,0.057,6.449,0.094c-0.094-0.622-0.075-1.32,0.113-2.074
		c4.789-18.536,14.444-35.431,18.479-54.268C338.887,259.123,339,258.821,339.132,258.557z M321.784,1002.151
		c3.375-0.547,6.769-1.15,10.145-1.81c-2.432-1.904-4.582-3.997-5.977-5.185c-5.713-4.921-11.144-10.182-16.386-15.594
		c-3.451,0.415-6.92,0.754-10.39,1.075c2.451,2.319,4.94,4.601,7.524,6.769c4.563,3.847,11.069,7.128,14.632,11.861
		C321.954,1000.096,322.048,1001.152,321.784,1002.151z M312.168,372.241c4.488-14.878,11.125-29.039,14.972-44.142
		c-7.844,0.094-15.688,0.17-23.551,0.207c-0.019,0.207-0.038,0.396-0.094,0.622c-3.809,14.538-7.354,29.171-12.332,43.35
		C298.176,372.26,305.172,372.241,312.168,372.241z M312.677,1003.49c-3.997-2.168-7.656-5.845-10.654-8.674
		c-4.601-4.337-9.051-8.825-13.444-13.35c-8.749,0.585-17.499,0.962-26.154,1.32c-23.929,0.999-47.914,2.357-71.842,2.998
		c-10.635,0.283-21.025-0.207-31.471-2.036c-10.786-1.886-22.25-0.019-33.13,0.151c-0.434,0-0.849,0.019-1.263,0.019
		c2.036,3.224,1.471,7.58-0.471,12.219c-2.527,6.015-3.922,7.92,3.752,8.73c4.789,0.509,9.598,0.471,14.387,0.924
		c31.584,3.092,63.866,1.716,95.563,1.603C263.104,1007.318,287.938,1006.771,312.677,1003.49z M300.797,259.142
		c0.075-0.245,0.17-0.471,0.264-0.698c-9.824-0.057-19.648-0.132-29.472-0.226c0.905,0.754,1.508,1.904,1.452,3.507
		c-0.585,18.932-8.372,35.695-12.69,53.853c7.41-0.057,14.84-0.075,22.269-0.075c0.057-0.207,0.075-0.415,0.151-0.641
		C289.125,296.383,295.951,278.111,300.797,259.142z M294.839,328.325c-1.697,0.019-3.394,0.019-5.091,0.019
		c-5.751,0-11.521-0.038-17.272-0.057c0.019,0.151,0.038,0.302,0.038,0.49c-0.622,15.16-5.921,29.227-9.956,43.69
		c6.053-0.057,12.125-0.094,18.196-0.132C286.203,357.911,290.559,343.146,294.839,328.325z M264.122,328.231
		c-7.26-0.057-14.538-0.132-21.798-0.226c-1.659,8.976-4.186,17.857-6.241,26.757c-1.358,5.864-2.244,12.106-3.96,17.989
		c6.901-0.075,13.803-0.132,20.685-0.207c0.17-0.377,0.377-0.735,0.641-1.075c4.035-14.067,9.258-28.039,10.578-42.69
		C264.028,328.589,264.084,328.42,264.122,328.231z M263.707,261.725c0.132-1.64,0.905-2.81,1.961-3.545
		c-9.522-0.094-19.064-0.226-28.586-0.377c0.245,0.754,0.339,1.603,0.17,2.527c-1.735,10.088-4.563,20.006-7.014,29.925
		c-2.074,8.41-3.338,17.461-6.015,25.776c8.674-0.132,17.329-0.245,25.984-0.339C249.659,313.938,262.406,278.715,263.707,261.725z
		 M233.198,327.873c-7.863-0.094-15.707-0.207-23.551-0.321c-1.358,8.73-2.828,17.48-4.752,26.116
		c-1.358,6.053-2.357,13.369-5.035,19.403c7.656-0.075,15.292-0.151,22.948-0.226c0.641-6.901,2.885-13.954,4.375-20.534
		C229.012,344.183,230.709,335.868,233.198,327.873z M227.937,257.765c0.019-0.038,0.038-0.057,0.038-0.094
		c-9.711-0.17-19.422-0.377-29.114-0.603c-0.019,0.17,0,0.339-0.019,0.509c-1.508,11.069-3.413,22.081-5.996,32.961
		c-1.98,8.353-3.394,18.309-7.58,26.097c9.786-0.151,19.592-0.302,29.378-0.453c0.415-9.032,3.262-18.159,5.374-26.889
		C222.563,278.79,224.958,268.155,227.937,257.765z M196.56,351.368c1.735-7.957,3.338-15.933,4.808-23.947
		c-33.149-0.49-66.298-0.905-99.429-0.453c0,0.905,0,1.81,0,2.715c0.113,14.557-0.057,29.548,3.394,43.784
		c28.661,0.132,57.323-0.038,86.003-0.321C192.054,365.868,195.052,358.382,196.56,351.368z M178.59,569.552
		c9.56-16.009,9.956-34.507,7.995-52.571c-0.603-5.6-1.471-11.408-2.621-17.235c0.321,12.69-1.565,25.475-6.166,37.184
		c-4.884,12.426-13.011,22.986-20.534,33.885c-3.752,5.431-8.693,11.54-10.201,18.102c-1.49,6.449,2.15,8.466,8.108,9.881
		c0.867,0.207,1.565,0.528,2.187,0.924C164.901,589.993,172.274,580.112,178.59,569.552z M183.474,213.925
		c0-0.49,0.075-0.924,0.189-1.339c-2.791-2.206-4.771-6.317-6.128-9.013c-1.697-3.338-3.47-6.826-4.676-10.427
		c-4.299,2.187-7.637,7.316-9.824,11.05c-1.754,2.998-3.149,6.109-4.299,9.372c-0.49,1.433-0.867,2.96-1.508,4.337
		c-0.057,4.639-0.434,9.258-0.302,13.916c9.372-0.019,18.781-0.471,28.133-0.886C184.191,225.295,183.455,219.582,183.474,213.925z
		 M107.05,790.641c1.546-5.035,3.206-9.994,4.921-14.953c-3.206,1.867-6.826,3.243-9.843,4.469
		c-6.26,2.527-12.747,4.356-19.29,6.015c-1.094,7.165-1.98,14.35-2.828,21.553c3.432-1.773,6.807-3.696,10.05-5.77
		c5.374-3.47,10.182-9.73,16.65-10.484c0.038,0,0.057,0,0.094,0C106.899,791.188,106.975,790.924,107.05,790.641z M95.359,837.273
		c2.112-10.691,4.62-21.345,7.486-31.924c-3.055,2.244-6.449,4.148-8.862,5.638c-4.921,3.036-10.031,5.638-15.349,7.806
		c-0.302,2.376-0.622,4.771-0.962,7.147c-1.169,8.052-2.564,16.047-3.96,24.042c2.395-1.867,4.921-3.564,7.505-5.129
		C85.498,842.251,90.381,838.536,95.359,837.273z M89.91,871.704c0.962-7.882,2.112-15.726,3.451-23.57
		c-2.112,1.188-4.299,2.244-6.223,3.394c-5.148,3.074-10.314,6.241-14.557,10.503c-0.358,0.358-0.717,0.585-1.094,0.792
		c-1.301,7.693-2.508,15.405-3.451,23.174c2.753-1.471,5.487-2.998,8.127-4.733C80.708,878.266,85.139,874.551,89.91,871.704z
		 M89.91,984.973c-0.773-0.735-1.32-1.791-1.452-3.168c-1.772-19.629-2.489-39.24-2.131-58.794
		c-6.826,4.789-14.557,8.674-21.76,10.427c-0.189,5.732-0.339,11.483-0.453,17.216c0,1.339,9.466,18.818,15.745,25.644
		C82.801,979.524,86.082,982.767,89.91,984.973z M86.704,910.68c0.377-8.806,0.981-17.593,1.81-26.361
		c-3.206,2.187-6.562,4.186-9.56,6.034c-3.564,2.187-7.788,4.959-12.143,6.732c-0.83,8.881-1.414,17.744-1.829,26.625
		C72.845,920.428,79.501,915.073,86.704,910.68z"/>
	<path fill="#555661" d="M1138.691,355.648c1.018,5.355,0.321,11.276-0.075,16.669c-0.377,5.449-0.415,10.88-0.735,16.329
		c-0.245,4.13-0.415,8.768-2.904,12.2c-2.112,2.942-3.639,2.847-5.921,2.546c0.113-11.955,1.075-23.91,1.622-35.827
		c0.189-3.866,0.226-7.712,0.226-11.559c2.187-1.867,5.449-4.601,6.864-4.224C1137.371,351.782,1138.427,354.366,1138.691,355.648z"
		/>
	<path fill="#BDBEC7" d="M1127.943,256.427c0.057,2.187,0.075,4.318,0.075,6.279c-0.019,11.163-0.189,22.363-0.415,33.545
		c-0.207,9.654-3.639,18.611-4.903,27.888c-12.935,0.415-25.927,0.302-38.881,0.415c-0.754,0.019-1.395,0.17-1.961,0.471
		l-0.189-0.302c2.432-1.565,1.848-5.845-1.735-6.091c-29.698-2.131-59.699-1.056-89.492-1.226l0.019-3.696
		c7.656,0,13.237-13.784,15.575-20.27c2.923-8.146,6.034-16.216,7.957-24.664c1.395-6.109,1.754-12.615,3.866-18.498l1.565,0.207
		c-0.641,2.263,0.321,5.129,2.904,5.581c16.782,2.923,35.337,0.98,52.364,0.867C1092.437,256.823,1110.218,256.785,1127.943,256.427
		z"/>
	<path fill="#BDBEC7" d="M503.784,242.982c0.981-1.018,1.603-2.395,1.565-3.752c-0.057-1.923-1.207-3.941-2.998-4.789
		c-0.339-0.302-0.717-0.603-1.113-0.886c-0.057-0.038-0.113-0.075-0.17-0.132c-0.189-0.132-0.339-0.302-0.547-0.434
		c0.019,0.019,0.019,0.038,0.038,0.057c-0.867-0.528-1.848-0.83-2.904-0.83c-1.829,0-4.111,1.037-4.903,2.81
		c-0.245,0.547-0.434,1.131-0.566,1.716c-0.434,0.754-0.679,1.603-0.679,2.564c0,1.735,0.999,3.96,2.696,4.695
		c0.075,0.038,0.207,0.094,0.339,0.151c0.075,0.038,0.151,0.075,0.226,0.113c0.189,0.075,0.358,0.151,0.509,0.207
		c0.094,0.019,0.17,0.057,0.245,0.075c0.019,0,0.038,0.019,0.038,0.019c0.283,0.075,0.603,0.132,0.924,0.189
		c0.245,0.113,0.509,0.207,0.792,0.283c2.357,0.698,4.393-0.226,6.128-1.716c0.094-0.094,0.207-0.17,0.302-0.264
		C503.747,243.039,503.765,243.02,503.784,242.982z M1125.058,234.667c1.226,4.035,1.942,8.391,2.376,12.671
		c-17.555-0.358-35.186-0.396-52.741-0.509c-17.065-0.094-35.563-2.036-52.364,0.886c-1.546,0.264-2.508,1.414-2.904,2.772
		l-1.565-0.207c1.018-2.885-1.622-5.299-4.205-5.525c-4.507-0.396-9.013-0.358-13.539-0.377c-5.902-0.038-5.921,9.24,0,9.183
		c3.092-0.019,6.185-0.038,9.277-0.057c-0.415,8.636-4.016,18.46-5.864,26.323c-0.849,3.62-8.561,29.076-15.255,23.815
		c-3.903-3.092-8.768,1.603-5.506,5.487c2.734,3.262,5.317,4.582,7.693,4.582l-0.019,3.696c-1.452,0-2.885,0-4.337-0.019
		c-31.716-0.302-63.432-0.264-95.148-1.131c-32.055-0.867-63.47-2.093-95.488,0.245c-32.131,2.357-65.186,0.075-97.392-0.132
		c-64.469-0.415-128.901,0.83-193.37,0.999c-58.416,0.132-116.739-0.585-175.117-1.452c5.902-17.989,12.389-35.959,16.047-54.589
		c0.207-1.094-0.038-2.036-0.547-2.753c42.954,0.038,85.909-0.038,128.844,0.226c20.685,0.132,41.295,0.207,61.961-0.698
		c4.243-0.189,4.261-6.411,0-6.6c-43.218-1.923-86.55-1.301-129.806-1.565c-54.815-0.302-109.611-1.282-164.426-1.32
		c-12.86,0-25.72-0.038-38.561,0.075l-0.038-3.13c5.638,0.019,5.657-8.806,0-8.768c-2.885,0-5.77-0.019-8.674-0.057
		c0.189-0.509,0.321-1.018,0.358-1.527c0.302-5.449-0.49-10.974-0.981-16.48c69.485,2.866,120.189,0.585,176.23,0.377
		c29.925-0.132,59.868,0.075,89.793,0.094c14.199,0.019,28.397,0.038,42.596,0.057c14.18,0.019,28.793,1.075,42.973,0.132
		c0.019,0.226,0.038,0.453,0.038,0.66c-1.603,12.294-0.132,25.569-0.038,37.788c0.113,13.803-1.377,28.756,1.188,42.332
		c0.113,0.622,0.377,1.131,0.735,1.546c0.17,0.453,0.396,0.905,0.735,1.301c4.393,5.299,11.936,5.94,18.385,6.26
		c9.051,0.453,18.159,0.603,27.209,0.905c25.248,0.811,50.874,0.698,76.047-1.942c17.008-1.791,39.919-1.32,45.651-20.836
		c2.979-10.163,2.866-20.911,2.018-31.754c0.453,0.189,0.962,0.321,1.527,0.358c24.966,1.584,50.421,0.471,75.425,0.245
		c25.098-0.245,50.403,0.49,75.425-1.244c4.016-0.283,4.035-5.977,0-6.241c-25.022-1.754-50.327-1.018-75.425-1.245
		c-25.003-0.226-50.459-1.358-75.425,0.226c-0.867,0.057-1.584,0.321-2.168,0.698c-0.981-10.145-2.131-20.289-1.565-30.076
		c11.653,0.453,23.438-0.019,35.054,0.075c13.727,0.113,27.455,0.471,41.182,0.528c29.34,0.17,58.68,0.302,88.002,0.321
		c28.718,0,57.417,0.113,86.135-0.057c13.124-0.094,26.267-0.207,39.409-0.302c10.955-0.094,33.243,0.264,33.243,0.83
		c0,2.828,2.546,4.582,4.997,4.714c0.264,0.603-2.659,1.584-4.582,1.584c-14.991,0.019-30-0.038-45.01,0.057
		c-14.859,0.113-30.245-0.66-45.01,1.056c-4.243,0.49-4.243,6.109,0,6.6c14.764,1.697,30.151,0.924,45.01,1.037
		c15.01,0.113,30.019,0.038,45.01,0.057c15.01,0.019,30.019,0.038,45.01,0.038C1097.226,234.931,1111.406,235.93,1125.058,234.667z
		 M987.691,249.299c1.018-2.885-1.622-5.299-4.205-5.525c-4.507-0.377-9.013-0.358-13.539-0.377c-5.902-0.038-5.921,9.24,0,9.183
		c3.092-0.019,6.185-0.019,9.277-0.057c-0.415,8.655-4.016,18.479-5.864,26.323c-0.849,3.62-8.561,29.095-15.255,23.815
		c-3.903-3.074-8.768,1.603-5.506,5.506c11.597,13.803,20.195-7.203,23.269-15.707c2.923-8.127,6.034-16.216,7.957-24.664
		C985.22,261.688,985.579,255.182,987.691,249.299z M955.56,251.241c1.037-2.885-1.603-5.28-4.186-5.506
		c-4.526-0.396-9.013-0.377-13.539-0.396c-5.902-0.019-5.921,9.24,0,9.202c3.092-0.038,6.185-0.038,9.258-0.057
		c-0.396,8.636-3.998,18.46-5.845,26.304c-0.867,3.639-8.561,29.095-15.255,23.815c-3.903-3.074-8.768,1.603-5.506,5.506
		c11.578,13.822,20.195-7.203,23.268-15.707c2.923-8.127,6.034-16.197,7.957-24.645C953.108,263.649,953.448,257.124,955.56,251.241
		z M917.3,255.069c3.149-0.434,3.149-5.94,0-6.373c-9.994-1.376-20.006-0.924-30.076-0.754c-5.072,0.075-5.072,7.806,0,7.901
		C897.294,256.012,907.307,256.446,917.3,255.069z M786.024,279.186c5.053-0.528,5.072-7.354,0-7.901
		c-17.442-1.829-35.091-1.188-52.552-0.264c-5.431,0.302-5.431,8.146,0,8.429C750.932,280.374,768.582,281.015,786.024,279.186z"/>
	<path fill="#555661" d="M1121.117,333.36c1.81,5.299,1.527,11.408,1.339,17.159c-0.773,1.471-0.698,3.187-0.094,4.639
		c0,6.317-0.321,12.634-0.641,18.932c-0.528,10.465-2.395,22.646-1.207,33.677c-1.094,3.13-0.943,6.223-0.943,9.711
		c0,2.263-0.075,4.563,0.075,6.845c-4.978-0.962-10.163-0.283-15.387-0.151c-5.864,0.17-11.879,0.094-17.706,1.018
		c-0.83-0.471-1.791-0.773-2.81-0.867c0.094-4.167,0.566-9.126,0.735-12.841c0.547-11.163,1.15-22.326,1.603-33.489
		c0.377-9.786,0.453-19.61,0.528-29.397c6.26-0.075,12.351-1.113,18.63-1.754c4.412-0.453,4.526-6.656,0-6.958
		c-6.223-0.396-12.37,0.302-18.554,0.415c-0.019-2.432-0.094-4.903-0.377-7.297C1097.924,333.077,1109.539,333.039,1121.117,333.36z
		"/>
	<path fill="#555661" d="M1076.937,202.215c8.127,0.811,29.642,1.697,28.133,13.652c-0.094,0.622-0.038,1.188,0.075,1.716
		c-6.713,0-13.444,0.453-19.912,0.528c-12.445,0.17-24.871,0.377-37.316,0.396c0.358-2.866,0.698-5.713,1.414-8.504
		c0.453-1.829,0.886-4.733,2.093-6.279c3.036-3.922,6.732-3.092,11.333-2.791C1067.471,201.253,1072.223,201.763,1076.937,202.215z"
		/>
	<path fill="#555661" d="M1081.67,324.724l0.189,0.302c-0.17,0.094-0.339,0.189-0.509,0.321c-1.716,0.415-3.262,2.074-2.942,4.375
		c0.566,4.092,0.113,8.73-0.302,13.18c-0.132,0.471-0.17,0.98-0.132,1.471c-0.132,1.414-0.245,2.791-0.302,4.111
		c-0.415,8.448-1.094,16.876-1.641,25.305c-1.245-0.641-2.847-1.094-4.865-1.15c-31.037-1.113-62.339-0.585-93.395-0.603
		c-31.773,0-63.545-0.019-95.318-0.038c-63.149-0.019-126.318-0.038-189.467-0.057c-123.885-0.057-247.77,0.321-371.655,0.283
		c5.035-14.18,9.013-28.944,12.313-43.577c0.057-0.207,0.075-0.415,0.075-0.622c16.801-0.245,33.602-0.641,50.384-1.282
		c32.018-1.188,64.168-0.207,96.204-0.245c64.469-0.057,128.901,1.32,193.37,1.131c31.848-0.094,63.715-0.339,95.563-0.434
		c16.329-0.057,32.395,1.056,48.687,1.772c16.292,0.698,32.414,0.132,48.687-0.471c35.487-1.301,70.937-1.527,106.443-1.848
		c35.506-0.302,71.446,1.188,106.877-1.358C1080.633,325.233,1081.217,325.044,1081.67,324.724z M1033.191,349.689
		c3.375-0.528,3.375-6.279,0-6.807c-10.823-1.735-22.005-0.905-32.923-0.849c-11.917,0.038-23.815,0.094-35.732,0.151
		c-23.815,0.094-47.65,0.075-71.465,0.075c-5.185,0-5.204,8.07,0,8.07c23.815,0,47.65-0.038,71.465,0.057
		c11.295,0.057,22.571,0.113,33.847,0.151C1009.922,350.594,1021.783,351.518,1033.191,349.689z M770.448,347.427
		c5.223-0.189,5.242-7.92,0-8.127c-27.7-1.075-55.55,0.226-83.269,0.245c-28.586,0-57.191,0-85.777,0
		c-57.115,0-114.551-1.942-171.591,0.641c-4.092,0.189-4.092,6.185,0,6.373c57.04,2.583,114.476,0.641,171.591,0.641
		c28.586,0,57.191-0.019,85.777,0C714.898,347.2,742.749,348.52,770.448,347.427z"/>
	<path fill="#BDBEC7" d="M1075.579,381.387c0,0.226-0.019,0.453-0.038,0.679c-0.151,3.338-0.415,6.751-0.679,10.22
		c-0.509-0.339-1.094-0.566-1.754-0.641c-7.674-0.773-16.292,2.338-24.306,2.338c-7.731,0-15.783-1.263-23.419,0.189
		c-3.696,0.698-3.62,6.637,0,7.392c8.881,1.829,18.837,1.358,27.851,1.037c6.6-0.226,15.726,0.019,21.157-4.356
		c-0.867,11.408-1.546,23.118,0.339,33.885c0.075,0.509,0.302,0.999,0.603,1.433c-2.074,8.617-1.414,17.461-3.715,26.135
		c-1.735,6.487-6.336,6.996-11.747,6.845c-0.924-5.072-1.339-9.447-7.392-12.181c-7.373-3.338-17.819-1.867-25.399,0.189
		c-2.282,0.622-3.47,2.847-3.432,4.978c-1.207,1.81-1.735,3.828-1.942,5.977c-15.33,1.094-30.886,2.074-46.103,3.847
		c-0.019-0.113-0.019-0.207-0.038-0.264c-0.113-1.358-0.207-2.696-0.358-4.035c2.998-3.62,1.075-10.918-5.864-9.692
		c-8.108,1.433-16.65,0.528-24.834,1.697c-1.81,0.264-2.791,1.81-2.979,3.47c-0.962,1.622-1.772,3.564-2.3,5.544
		c-3.903,0.603-7.92,2.018-11.729,2.414c-5.431,0.585-10.937,0.641-16.405,0.585c-11.351-0.094-22.703-0.867-34.054-0.981
		c-21.27-0.226-46.763-6.675-67.015,2.244c0.113-4.676-0.057-9.372-0.415-14.048c2.244-9.975,1.433-20.761,1.377-31.15
		c-0.038-6.751-1.188-13.444-1.584-20.195c-0.453-7.373,1.075-14.406,0.849-21.666c0-0.132-0.038-0.264-0.057-0.396
		c15.952,0,31.905,0,47.876,0c34.922-0.019,69.824-0.038,104.746-0.038c36.015-0.019,72.37,0.622,108.348-0.603
		C1072.977,382.179,1074.429,381.858,1075.579,381.387z M1060.457,444.159c4.469-0.415,4.488-6.524,0-6.939
		c-35.186-3.338-71.484-1.659-106.783-1.641c-17.876,0-35.751,0-53.608,0.075c-17.178,0.075-35.978-1.886-52.835,1.113
		c-3.884,0.698-3.884,7.146,0,7.844c16.839,2.979,35.695,1.037,52.835,1.113c17.857,0.075,35.732,0.075,53.608,0.075
		C988.973,445.818,1025.271,447.496,1060.457,444.159z M1012.769,402.26c4.393-0.321,4.412-6.524,0-6.845
		c-13.633-0.981-27.209-0.735-40.861-0.132c-4.582,0.189-4.601,6.92,0,7.128C985.56,402.996,999.136,403.241,1012.769,402.26z
		 M955.352,400.959c5.223-0.547,5.242-7.58,0-8.127c-23.778-2.489-48.102,1.094-71.917,1.018c-11.37-0.019-33.13-1.037-41.276,8.58
		c-2.244,2.659,0.566,6.92,3.866,4.997c7.316-4.262,12.634-6.901,21.326-7.524c7.26-0.528,14.972-0.302,22.25,0.207
		C910.965,401.582,934.026,403.203,955.352,400.959z"/>
	<path d="M1060.457,437.22c4.488,0.415,4.469,6.524,0,6.939c-35.186,3.338-71.484,1.659-106.783,1.641
		c-17.876,0-35.751,0-53.608-0.075c-17.14-0.075-35.996,1.867-52.835-1.113c-3.884-0.698-3.884-7.146,0-7.844
		c16.857-2.998,35.657-1.037,52.835-1.113c17.857-0.075,35.732-0.075,53.608-0.075C988.973,435.56,1025.271,433.882,1060.457,437.22
		z"/>
	<path d="M1033.191,342.882c3.375,0.528,3.375,6.279,0,6.807c-11.408,1.829-23.269,0.905-34.809,0.849
		c-11.276-0.038-22.552-0.094-33.847-0.151c-23.815-0.094-47.65-0.057-71.465-0.057c-5.204,0-5.185-8.07,0-8.07
		c23.815,0,47.65,0.019,71.465-0.075c11.917-0.057,23.815-0.113,35.732-0.151C1011.185,341.977,1022.367,341.148,1033.191,342.882z"
		/>
	<path d="M1013.656,244.755c2.583,0.226,5.223,2.64,4.205,5.525c-2.112,5.883-2.47,12.389-3.866,18.498
		c-1.923,8.448-5.035,16.518-7.957,24.664c-2.338,6.487-7.92,20.27-15.575,20.27c-2.376,0-4.959-1.32-7.693-4.582
		c-3.262-3.884,1.603-8.58,5.506-5.487c6.694,5.261,14.406-20.195,15.255-23.815c1.848-7.863,5.449-17.687,5.864-26.323
		c-3.092,0.019-6.185,0.038-9.277,0.057c-5.921,0.057-5.902-9.221,0-9.183C1004.642,244.396,1009.149,244.359,1013.656,244.755z"/>
	<path d="M1012.769,395.416c4.412,0.321,4.393,6.524,0,6.845c-13.633,0.981-27.209,0.735-40.861,0.151
		c-4.601-0.207-4.582-6.939,0-7.128C985.56,394.68,999.136,394.435,1012.769,395.416z"/>
	<path d="M983.486,243.774c2.583,0.226,5.223,2.64,4.205,5.525c-2.112,5.883-2.47,12.389-3.866,18.498
		c-1.923,8.448-5.035,16.537-7.957,24.664c-3.074,8.504-11.672,29.51-23.269,15.707c-3.262-3.903,1.603-8.58,5.506-5.506
		c6.694,5.28,14.406-20.195,15.255-23.815c1.848-7.844,5.449-17.668,5.864-26.323c-3.092,0.038-6.185,0.038-9.277,0.057
		c-5.921,0.057-5.902-9.221,0-9.183C974.472,243.416,978.979,243.397,983.486,243.774z"/>
	<path d="M955.352,392.832c5.242,0.547,5.223,7.58,0,8.127c-21.326,2.244-44.387,0.622-65.752-0.849
		c-7.278-0.509-14.991-0.735-22.25-0.207c-8.693,0.622-14.01,3.262-21.326,7.524c-3.3,1.923-6.109-2.338-3.866-4.997
		c8.146-9.617,29.906-8.598,41.276-8.58C907.25,393.926,931.575,390.343,955.352,392.832z"/>
	<path d="M951.374,245.735c2.583,0.226,5.223,2.621,4.186,5.506c-2.112,5.883-2.451,12.407-3.847,18.517
		c-1.923,8.448-5.035,16.518-7.957,24.645c-3.074,8.504-11.691,29.529-23.268,15.707c-3.262-3.903,1.603-8.58,5.506-5.506
		c6.694,5.28,14.387-20.176,15.255-23.815c1.848-7.844,5.449-17.668,5.845-26.304c-3.074,0.019-6.166,0.019-9.258,0.057
		c-5.921,0.038-5.902-9.221,0-9.202C942.36,245.358,946.848,245.339,951.374,245.735z"/>
	<path d="M917.3,248.696c3.149,0.434,3.149,5.94,0,6.373c-9.994,1.376-20.006,0.943-30.076,0.773c-5.072-0.094-5.072-7.825,0-7.901
		C897.294,247.772,907.307,247.319,917.3,248.696z"/>
	<path fill="#555661" d="M763.679,487.17c-6.43,1.113-13.237,1.226-20.025,0.905c2.13,2.659,3.997,5.789,5.506,9.504
		c6.298,15.368,6.015,33.055,4.431,49.29c-1.603,16.48-4.827,32.942-9.862,48.743c-3.055,9.579-7.165,21.496-14.576,28.699
		c-12.257,11.917-36.996,7.373-52.383,8.429c-26.38,1.81-52.646,2.263-79.083,3.036c-22.797,0.679-45.858,2.451-68.599-0.264
		c-19.723-2.338-31.603-11.974-39.221-30.151c-0.019,0.226-0.038,0.434-0.038,0.641c-0.528,7.561-0.622,16.65-3.337,24.061
		c7.41,1.452,14.557,4.412,21.119,8.655c6.958,4.488,13.275,9.673,21.364,12.068c9.975,2.942,21.1,3.206,31.452,3.677
		c43.294,1.999,86.38-4.337,129.599-5.261c20.252-0.434,42.351,4.601,62.15-0.698c10.069-2.696,16.575-8.052,16.876-18.856
		c0.188-6.6-3.96-11.974-5.223-18.328c-2.357-11.766-0.038-24.57,1.867-36.223c2.338-14.218,5.808-28.265,9.485-42.2
		c2.64-9.937,4.62-21.666,9.994-30.509c4.867-8.05,13.617-12.181,21.534-17.055c-13.443-0.237-26.886-1.425-40.328-2.024
		C766.457,485.047,765.563,486.846,763.679,487.17z"/>
	<path fill="#BDBEC7" d="M788.927,484.304c-4.77-0.434-4.752-6.977,0-7.429c4.111-0.377,8.221-0.547,12.332-0.641
		c-0.076-1.018-0.151-2.018-0.207-3.036c-2.583,1.433-5.657-2.206-4.394-5.053c7.976-17.951,6.393-35.167,3.451-54.08
		c-1.376-8.825-5.016-23.287,1.207-31.169c-107.386,0.038-214.791,0.075-322.177,0c-63.036-0.038-126.091-0.283-189.128-0.245
		c-62.848,0.019-125.752-1.622-188.581-1.244c-3.13,1.15-7.033,0.151-8.071-4.016c-1.282-5.129-2.093-10.39-2.602-15.688
		c-9.899,9.899-11.05,25.663-11.521,39.013c-0.207,5.657-0.49,12.389,4.808,15.82c4.261,2.753,10.145,2.791,15.047,2.866
		c9.522,0.17,19.082-1.358,28.586-0.603c8.881,0.698,16.462,4.676,23.476,10.013c0.45,0.338,1.238,0.845,2.058,1.358
		c13.05,0.281,25.912,8.12,38.108,13.967c-0.298-3.468,3.974-6.67,6.861-3.446c9.862,10.993,19.177,22.552,25.739,35.865
		c6.6,13.388,8.561,27.115,8.975,41.88c0.49,16.857-0.434,33.734-6.505,49.648c-5.578,14.597-13.507,28.154-23.162,40.381
		c-1.675,11.136-7.324,19.691-12.827,28.751c0.814,1.036,1.08,2.451,0.181,3.823c-30.905,47.386-55.701,100.428-72.2,154.564
		c-9.013,29.491-15.971,60.057-18.573,90.83c-0.585,7.052-0.886,14.105-1.018,21.176c0.792,1.32,0.867,3.187-0.075,4.469
		c-0.226,23.268,0.999,46.575-0.999,69.73c-0.302,3.319,3.715,2.64,7.825-0.905c5.902-5.091,11.974-6.562,19.742-7.448
		c11.295-1.282,24.004-2.301,35.336-0.867c11.219,1.395,21.703,2.998,33.074,2.81c12.728-0.226,25.456-0.717,38.184-1.075
		c26.323-0.735,52.1-3.413,78.178-6.713c1.64-0.189,3.337-0.358,5.053-0.547c0.207-14.01,4.563-26.644,8.146-40.013
		c3.809-14.199,6.015-28.831,9.221-43.181c3.243-14.519,7.222-29.057,11.106-43.426c3.865-14.35,7.882-28.529,13.275-42.408
		c1.376-3.564,7.146-2.036,5.789,1.603c-10.145,27.172-16.876,54.438-22.288,82.835c-2.659,13.953-5.996,27.775-8.58,41.729
		c-2.395,12.879-5.261,26.493-5.016,39.692c0.17,0.264,0.302,0.547,0.396,0.849c1.867-0.66,3.62-1.527,5.223-2.696
		c7.693-5.6,10.069-15.858,10.692-24.758c1.622-22.797,7.731-44.482,14.067-66.412c13.369-46.386,28.19-92.32,42.54-138.404
		c6.392-20.534,13.463-41.012,20.855-61.207c-2.225,0.151-4.469,0.226-6.732,0.207c-2.96-0.038-6.053,0.151-8.919-0.49
		c-9.937,27.983-16.443,57.002-26.323,84.947c-1.452,4.111-7.26,2.47-6.486-1.773c5.525-29.868,14.576-59.491,25.399-87.832
		c0.679-1.791,2.131-2.659,3.658-2.847c3.866-1.754,7.561-1.056,11.747-0.905c3.79,0.132,7.58,0.057,11.351-0.113
		c5.468-10.918,13.69-19.893,24.23-25.908c-22.42,0-26.512,14.953-27.077,15.669c-3.243,4.092-10.182-1.358-7.222-5.581
		c17.159-24.306-9.843-60.528,10.824-82.873c16.254-17.574,39.673,4.45,58.812,2.074c1.584-27.455,13.784-55.663,35.242-69.73
		c7.406-4.859,15.314-5.882,21.754-3.59c5.737-0.939,11.859-0.718,17.942-0.379c-0.408-2.006,0.742-4.368,3.447-4.498
		c6.92-0.321,13.822-0.849,20.723-1.414c1.037-0.547,2.206-0.585,3.356-0.283c12.049-0.999,24.079-2.036,36.223-2.112
		c17.234-0.094,34.507-0.283,51.685-1.697c11.465-0.924,22.609-3.432,33.96-4.959c9.39-1.263,17.857-0.66,24.89,2.546
		c10.107-0.962,20.855-1.565,30.66,0.132c1.736,0.298,2.631,1.851,2.702,3.454c13.443,0.598,26.885,1.787,40.328,2.024
		c0.15-0.092,0.303-0.181,0.453-0.274C801.071,484.983,794.98,484.869,788.927,484.304z M148.119,420.438
		c-12.803-8.994-25.022-4.903-39.466-5.412c-3.979-0.132-4.808-5.808-0.943-6.939c14.123-4.111,35.261-7.731,46.122,4.94
		C157.113,416.855,152.757,423.681,148.119,420.438z M191.601,421.022c-0.603,1.848-1.622,3.564-3.017,4.922
		c-3.583,3.488-9.39,4.45-13.897,2.3c-7.354-3.488-9.466-13.463-2.319-18.309c2.093-1.414,4.582-2.168,7.052-2.734
		c2.244-0.49,4.62-0.849,6.788-0.094c2.3,0.811,4.054,2.791,5.035,5.016C192.487,414.894,192.544,418.137,191.601,421.022z
		 M376.844,630.741c-12.521,58.775-30.49,116.663-47.8,174.156c-8.9,29.548-17.989,59.039-27.756,88.304
		c-4.733,14.18-8.504,32.037-17.366,44.387c-1.772,2.47-4.394,3.224-6.807,2.885c-5.468,4.243-12.37,5.562-19.554,5.676
		c-11.483,0.17-22.684-1.697-34.186-0.717c-15.33,1.282-30.698,1.584-46.066,1.678c-18.177,0.113-43.162,2.206-57.492-11.54
		c-15.292-14.708-4.921-39.673-1.358-57.078c5.826-28.397,10.503-55.909,21.892-82.798c10.993-25.908,23.702-50.912,34.808-76.763
		c4.865-11.314,10.597-21.779,19.252-30.641c9.654-9.899,17.404-20.308,23.891-32.527c6.015-11.276,11.012-23.061,16.82-34.431
		c3.658-7.203,9.409-22.382,17.63-25.343c6.92-2.47,15.669-2.621,22.891-3.639c27.209-3.79,59.529-9.409,86.437-1.32
		c9.409,2.81,18.064,8.825,18.008,19.573C380.069,617.277,378.221,624.254,376.844,630.741z M420.27,548.207
		c-7.769,3.96-16.047,4.79-24.626,5.789c-13.633,1.584-27.379,2.301-41.107,2.357c-16.839,0.057-36.751,1.075-53.156-3.602
		c-12.275-3.507-22.024-14.764-13.991-27.341c1.904-2.998,7.203-2.018,7.033,1.904c-0.226,4.752-1.376,9.428,2.678,12.841
		c3.469,2.942,9.409,3.658,13.727,4.205c10.993,1.414,22.477,1.207,33.526,1.414c18.837,0.339,37.826-0.528,56.493-3.168
		c5.355-0.754,30.283-6.939,21.289-15.406c-2.715-2.564,0.094-8.202,3.865-6.656C443.03,527.522,431.999,542.211,420.27,548.207z
		 M437.957,491.45c-6.675,23.382-39.447,28.85-60.076,28.586c-14.614-0.17-29.208-1.603-43.784-2.678
		c-11.54-0.849-22.816-0.886-34.092-3.922c-8.73-2.338-17.706-7.109-20.629-16.348c-2.885-9.145,0.773-21.062,9.164-25.927
		c3.998-2.301,8.787,3.526,5.035,6.524c-7.863,6.336-7.373,18.573,0.905,24.06c7.128,4.714,15.443,4.846,23.664,5.431
		c16.933,1.188,34.073,4.243,51.044,4.431c17.612,0.17,44.387-0.264,56.663-15.424c10.145-12.558,1.508-30.245-14.519-28.812
		c-4.827,0.434-5.902-7.788-1.15-8.448C429.397,456.302,443.369,472.481,437.957,491.45z M471.276,543.965
		c-0.754,2.527-1.867,4.959-4.224,6.355c-2.131,1.245-4.62,1.245-6.996,1.113c-3.564-0.207-6.845-3.564-5.6-7.354
		c0.358-1.075,0.83-2.036,1.471-2.885c0.528-2.244,2.055-4.28,4.28-5.431c1.565-0.83,2.998-1.207,4.752-0.962
		c1.584,0.207,3.074,0.867,4.224,1.999C471.182,538.723,472.087,541.23,471.276,543.965z M539.517,474.687
		c-10.296,4.526-21.534,6.166-30.66,13.143c-11.219,8.561-17.367,21.138-23.231,33.602c-1.81,3.866-8.372,1.056-6.883-2.904
		c5.374-14.444,11.05-28.473,23.382-38.448c10.013-8.089,23.061-11.106,35.714-11.54
		C540.95,468.427,542.571,473.348,539.517,474.687z M532.936,441.123c-0.566,0.094-1.094,0.094-1.565,0
		c-0.358,0.377-0.83,0.641-1.414,0.754c-18.177,3.262-38.052,1.169-56.474,1.15c-19.761-0.019-39.523-0.038-59.303-0.057
		c-19.761-0.019-39.541-0.038-59.303-0.057c-19.403-0.019-39.032,0.792-58.398-0.962c-0.811-0.075-1.471-0.358-1.961-0.773
		c-4.243-0.641-8.184-2.414-11.465-5.751c-9.428-9.635-9.824-28.284-1.056-38.429c1.075-1.244,2.376-1.49,3.526-1.15
		c0.358-0.151,0.773-0.264,1.226-0.283c40.71-1.81,81.76-0.924,122.509-0.792c37.731,0.113,122.867,0.622,123.244,3.074
		c5.864,7.26,9.598,12.653,9.579,23.212C542.062,427.905,541.534,439.577,532.936,441.123z M642.679,413.612
		c-3.583,8.24-0.98,17.499-3.451,25.984c-0.886,3.092-5.242,3.017-6.185,0c-3.074-9.824-2.508-21.119,2.414-30.208
		C638.059,404.523,644.753,408.803,642.679,413.612z M678.147,447.138c-0.999-0.019-1.81-0.415-2.395-1.018
		c-13.482,0.981-26.04-5.77-27.983-20.516c-3.79-28.888,33.451-49.083,56.701-32.206
		C728.814,411.047,702.076,447.515,678.147,447.138z M758.399,459.753c-9.673,5.789-22.307,1.942-26.059-8.919
		c-3.658-10.635,2.677-22.741,13.859-25.06c0.302-0.057,0.604-0.075,0.886-0.075C767.205,415.875,774.597,450.061,758.399,459.753z"
		/>
	<path fill="#555661" d="M202.048,609.98c-2.583,3.187-8.033-0.245-6.807-3.941c4.507-13.539,12.389-25.173,18.347-38.033
		c6.826-14.727,8.712-30.038,8.768-46.122c0.057-15.104-1.188-29.34-7.674-43.181c-5.581-11.861-13.878-22.269-22.326-32.169
		c-0.647-0.762-0.965-1.588-1.035-2.4c-12.196-5.848-25.058-13.686-38.108-13.967c1.24,0.776,2.553,1.564,2.883,1.791
		c26.418,17.8,37.656,52.439,41.653,82.684c2.168,16.405,2.583,33.866-3.375,49.573c-6.128,16.16-18.347,30.321-28.812,43.841
		c-24.042,31.113-46.122,64.337-60.868,100.956c-7.392,18.366-13.086,37.788-17.895,56.983c-0.905,3.545-1.64,7.128-2.319,10.71
		c3.564-1.131,7.09-2.357,10.559-3.752c4.073-1.622,8.24-3.526,11.898-5.977c2.96-1.98,4.978-4.035,8.523-4.752
		c0.49-0.094,0.962-0.075,1.414-0.019c7.052-18.611,15.141-36.807,23.664-54.853c11.766-24.89,24.815-50.912,44.406-70.673
		c1.716-1.727,4.223-1.037,5.457,0.533c5.503-9.06,11.152-17.615,12.827-28.751C202.832,608.966,202.451,609.482,202.048,609.98z
		 M157.264,655.499c-13.407,27.737-35.695,49.479-45.556,79.253c-1.678,5.072-9.598,2.96-8.052-2.225
		c8.957-30.151,28.209-57.304,48.385-81.063C154.643,648.39,158.81,652.331,157.264,655.499z"/>
	<path fill="#555661" d="M540.793,492.518c7.006,2.493,12.273,8.915,13.186,18.769c0.867,9.409-1.169,18.856-1.169,28.284
		c0.019,9.9,0.981,19.78,3.733,29.303c4.884,16.876,26.455,42.125,47.197,35.299c1.452-0.471,2.338-1.244,2.998-1.848
		c-0.792-0.585-1.546-1.358-2.263-1.942c-7.467-5.996-14.764-11.672-20.685-19.309c-19.912-25.663-16.857-57.606-5.638-86.097
		c-5.336,0.094-10.654,0.132-15.971-0.019c-2.007-0.056-3.146-1.342-3.447-2.818C552.653,491.799,546.53,491.579,540.793,492.518z"
		/>
	<path d="M786.024,271.285c5.072,0.547,5.053,7.373,0,7.901c-17.442,1.829-35.091,1.188-52.552,0.264
		c-5.431-0.283-5.431-8.127,0-8.429C750.932,270.097,768.582,269.456,786.024,271.285z"/>
	<path d="M770.448,339.3c5.242,0.207,5.223,7.938,0,8.127c-27.7,1.094-55.55-0.226-83.269-0.226c-28.586-0.019-57.191,0-85.777,0
		c-57.115,0-114.551,1.942-171.591-0.641c-4.092-0.189-4.092-6.185,0-6.373c57.04-2.583,114.476-0.641,171.591-0.641
		c28.586,0,57.191,0,85.777,0C714.898,339.526,742.749,338.225,770.448,339.3z"/>
	<path fill="#555661" d="M761.247,439.105c0.867,4.978-0.585,11.276-5.167,13.954c-5.412,3.149-12.917,1.15-15.424-4.695
		c-3.168-7.373,2.489-12.747,8.127-16.443c0.094-0.075,0.17-0.151,0.264-0.226C754.854,431.11,760.115,432.657,761.247,439.105z"/>
	<path d="M747.086,425.699c20.12-9.824,27.511,24.362,11.314,34.054c-9.673,5.789-22.307,1.942-26.059-8.919
		c-3.658-10.635,2.678-22.741,13.859-25.06C746.501,425.717,746.803,425.699,747.086,425.699z M756.08,453.059
		c4.582-2.678,6.034-8.976,5.167-13.954c-1.131-6.449-6.392-7.995-12.2-7.41c-0.094,0.075-0.17,0.151-0.264,0.226
		c-5.638,3.696-11.295,9.07-8.127,16.443C743.164,454.209,750.668,456.208,756.08,453.059z"/>
	<path fill="#555661" d="M707.62,249.45c0.754,9.334,1.848,18.988,1.414,28.284c-1.018,21.496-35.921,20.138-51.534,21.119
		c-19.365,1.226-38.9,1.376-58.303,1.037c-8.693-0.151-17.385-0.811-26.078-0.66c-6.072,0.113-12.822,0.792-18.159-2.376
		c1.791-12.69,0.566-26.304,0.679-39.013c0.019-2.866,0.113-5.808,0.226-8.768c24.532,2.055,50.025,0.132,74.557,0.245
		C656.123,249.431,681.938,249.921,707.62,249.45z"/>
	<path fill="#BDBEC7" d="M706.526,231.065c0.17,3.206,0.321,6.411,0.509,9.617c-25.494-0.434-51.119,0.038-76.613,0.151
		c-24.438,0.113-49.818-1.791-74.237,0.207c0.094-2.942,0.17-5.883,0.151-8.806c8.466,1.433,17.574,0.622,25.965,0.679
		c13.746,0.113,27.511,0.094,41.257,0.113c13.746,0.019,27.511,0.038,41.257,0.057c6.241,0.019,12.502,0.019,18.743,0.038
		c6.317,0.019,12.803,0.924,18.781-1.075c0.754,0.151,1.584,0.132,2.432-0.094C705.395,231.782,705.979,231.461,706.526,231.065z"/>
	<path d="M704.471,393.398c24.343,17.649-2.395,54.117-26.323,53.74c-0.999-0.019-1.81-0.415-2.395-1.018
		c-13.482,0.981-26.04-5.77-27.983-20.516C643.98,396.717,681.221,376.522,704.471,393.398z M704.942,416.459
		c1.961-9.749-2.998-15.896-10.333-18.781c0.547,11.483,1.188,23.495,0.019,34.997C699.7,428.866,703.509,423.606,704.942,416.459z
		 M687.462,436.805c-0.849-13.558-1.112-27.341-0.66-40.918c-1.622-0.132-3.262-0.17-4.903-0.075
		c-13.03,0.735-26.304,9.522-26.945,23.608c-0.566,12.539,9.409,19.724,20.61,21.439c0.396-0.396,0.924-0.698,1.622-0.849
		C680.75,439.294,684.219,438.238,687.462,436.805z"/>
	<path fill="#555661" d="M694.609,397.678c7.335,2.885,12.294,9.032,10.333,18.781c-1.433,7.147-5.242,12.407-10.314,16.216
		C695.797,421.173,695.156,409.162,694.609,397.678z"/>
	<path fill="#555661" d="M686.802,395.887c-0.453,13.576-0.189,27.36,0.66,40.918c-3.243,1.433-6.713,2.489-10.277,3.206
		c-0.698,0.151-1.226,0.453-1.622,0.849c-11.201-1.716-21.175-8.9-20.61-21.439c0.641-14.086,13.916-22.873,26.945-23.608
		C683.54,395.717,685.181,395.755,686.802,395.887z"/>
	<path d="M635.457,409.388c2.602-4.865,9.296-0.585,7.222,4.224c-3.583,8.24-0.981,17.499-3.451,25.984
		c-0.886,3.092-5.242,3.017-6.185,0C629.97,429.772,630.536,418.477,635.457,409.388z"/>
	<path d="M584.458,456.531c0.596,2.996-1.487,5.947-4.279,6.897c-3.064,1.049-7.184-0.008-7.878-3.547
		c-0.634-3.222,2.158-6.762,5.441-6.905c0.43-0.023,3.109,0.174,4.158,0.543C583.28,453.995,584.171,455.112,584.458,456.531z"/>
	<path d="M532.502,397.848c5.864,7.26,9.598,12.653,9.579,23.212c-0.019,6.845-0.547,18.517-9.145,20.063
		c-0.566,0.094-1.094,0.094-1.565,0c-0.358,0.377-0.83,0.641-1.414,0.754c-18.177,3.262-38.052,1.169-56.474,1.15
		c-19.761-0.019-39.523-0.038-59.303-0.057c-19.761-0.019-39.541-0.038-59.303-0.057c-19.403-0.019-39.032,0.792-58.398-0.962
		c-0.811-0.075-1.471-0.358-1.961-0.773c-4.243-0.641-8.184-2.414-11.465-5.751c-9.428-9.635-9.824-28.284-1.056-38.429
		c1.075-1.245,2.376-1.49,3.526-1.15c0.358-0.151,0.773-0.264,1.226-0.283c40.711-1.81,81.76-0.924,122.509-0.792
		C446.989,394.888,532.125,395.397,532.502,397.848z M530.258,434.768c4.299-3.243,3.545-10.333,3.375-15.236
		c-0.207-6.279-2.112-11.351-6.864-15.104c-1.886-0.094-3.243-0.98-4.073-2.225c-37.694,1.075-75.708,0.585-113.439,0.698
		c-20.836,0.075-41.766,0.339-62.678,0.339c-19.516,0-39.051-0.245-58.492-1.075c-4.299,8.938-6.675,25.362,5.053,30.132
		c6.769,2.753,18.592,0.057,25.871-0.358c7.995-0.453,26.983,1.207,27.247,2.602c2.885,0.019,5.751,0.038,8.617,0.038
		c19.761-0.019,39.541-0.038,59.303-0.057c19.78-0.019,39.541-0.038,59.303-0.057c2.527,0,5.072-0.057,7.637-0.113
		c16.028-0.377,32.791-1.527,48.347,1.188C529.693,435.259,529.938,435.014,530.258,434.768z"/>
	<path d="M537.839,468.54c3.111-0.113,4.733,4.808,1.678,6.147c-10.295,4.525-21.534,6.166-30.66,13.143
		c-11.219,8.561-17.367,21.138-23.231,33.602c-1.81,3.865-8.372,1.056-6.883-2.904c5.374-14.444,11.05-28.473,23.382-38.448
		C512.138,471.991,525.186,468.974,537.839,468.54z"/>
	<path d="M505.349,239.23c0.038,1.358-0.585,2.734-1.565,3.752c-0.019,0.038-0.038,0.057-0.075,0.075
		c-0.094,0.094-0.207,0.17-0.302,0.264c-1.735,1.49-3.771,2.414-6.128,1.716c-0.283-0.075-0.547-0.17-0.792-0.283
		c-0.321-0.057-0.641-0.113-0.924-0.189c0,0-0.019-0.019-0.038-0.019c-0.075-0.019-0.151-0.057-0.245-0.075
		c-0.151-0.057-0.321-0.132-0.509-0.207c-0.075-0.038-0.151-0.075-0.226-0.113c-0.132-0.057-0.264-0.113-0.339-0.151
		c-1.697-0.735-2.696-2.96-2.696-4.695c0-0.962,0.245-1.81,0.679-2.564c0.132-0.585,0.321-1.169,0.566-1.716
		c0.792-1.772,3.074-2.81,4.903-2.81c1.056,0,2.036,0.302,2.904,0.83c-0.019-0.019-0.019-0.038-0.038-0.057
		c0.207,0.132,0.358,0.302,0.547,0.434c0.057,0.057,0.113,0.094,0.17,0.132c0.396,0.283,0.773,0.585,1.113,0.886
		C504.143,235.289,505.293,237.307,505.349,239.23z"/>
	<path d="M497.939,423.379c3.488,0.358,3.488,5.072,0,5.431c-5.6,0.566-11.238,0.83-16.914,0.943
		c-12.69,0.207-25.475-0.415-38.071-0.415c-18.309,0.019-36.694,0.603-54.985-0.132c-4.016-0.151-4.016-6.072,0-6.241
		c5.167-0.207,10.333-0.302,15.519-0.339c13.143-0.094,26.323,0.207,39.466,0.226C461.169,422.851,479.818,421.531,497.939,423.379z
		"/>
	<path d="M488.209,411.104c2.998,0.226,2.998,4.45,0,4.657c-28.133,1.999-56.55,1.565-84.777,1.867
		c-2.074,0-4.148,0.019-6.223,0.057c-30.038,0.453-61.056,1.98-91-0.735c-4.507-0.415-4.488-6.6,0-7.014
		c13.294-1.207,26.813-1.584,40.352-1.584c16.952,0,33.941,0.585,50.648,0.83C427.492,409.633,458.001,408.954,488.209,411.104z"/>
	<path fill="#BDBEC7" d="M482.571,573.625c-0.924,9.73-0.98,19.516-1.716,29.265c-0.66,8.655-3.13,17.517-3.526,26.172
		c-3.771-0.094-7.542,0.207-11.314,0.943c-0.622-0.905-25.833-2.187-36.524,1.81c0.641-4.695,0.717-9.56,0.547-14.406
		c-0.471-13.35-3.847-28.85,2.904-41.201c5.487-10.088,16.839-7.863,26.304-5.619C467.052,572.438,474.708,574.549,482.571,573.625z
		 M459.566,617.296c10.088-4.45,15.971-16.461,13.105-27.172c-1.339-5.053-4.695-9.296-9.39-11.615
		c-5.355-2.659-9.56-1.942-14.651-0.094c-0.377-0.019-0.773,0.038-1.207,0.189c-10.88,3.79-17.197,16.612-14.406,27.813
		C436.015,618.371,449.045,621.935,459.566,617.296z"/>
	<path d="M472.672,590.125c2.866,10.71-3.017,22.722-13.105,27.172c-10.522,4.639-23.551,1.075-26.549-10.88
		c-2.791-11.201,3.526-24.023,14.406-27.813c0.434-0.151,0.83-0.207,1.207-0.189c5.091-1.848,9.296-2.564,14.651,0.094
		C467.976,580.828,471.333,585.071,472.672,590.125z M457.643,608.962c5.657-3.413,8.881-11.276,6.468-17.593
		c-2.3-5.996-8.787-6.581-14.387-6.505c-6.053,4.092-10.446,11.37-8.976,18.837C442.313,611.734,451.439,612.714,457.643,608.962z"
		/>
	<path d="M469.183,536.799c1.999,1.923,2.904,4.431,2.093,7.165c-0.754,2.527-1.867,4.959-4.224,6.354
		c-2.131,1.245-4.62,1.245-6.996,1.113c-3.564-0.207-6.845-3.564-5.6-7.354c0.358-1.075,0.83-2.036,1.471-2.885
		c0.528-2.244,2.055-4.28,4.28-5.431c1.565-0.83,2.998-1.207,4.752-0.962C466.543,535.008,468.033,535.668,469.183,536.799z"/>
	<path fill="#555661" d="M464.111,591.369c2.414,6.317-0.811,14.18-6.468,17.593c-6.204,3.752-15.33,2.772-16.895-5.261
		c-1.471-7.467,2.923-14.746,8.976-18.837C455.324,584.788,461.81,585.373,464.111,591.369z"/>
	<path d="M410.182,458.923c19.214-2.621,33.187,13.558,27.775,32.527c-6.675,23.382-39.447,28.85-60.076,28.586
		c-14.614-0.17-29.208-1.603-43.784-2.678c-11.54-0.849-22.816-0.886-34.092-3.922c-8.73-2.338-17.706-7.109-20.629-16.348
		c-2.885-9.145,0.773-21.062,9.164-25.927c3.997-2.3,8.787,3.526,5.035,6.524c-7.863,6.336-7.373,18.573,0.905,24.06
		c7.128,4.714,15.443,4.846,23.664,5.431c16.933,1.188,34.073,4.243,51.044,4.431c17.612,0.17,44.387-0.264,56.663-15.424
		c10.145-12.558,1.508-30.245-14.519-28.812C406.505,467.805,405.43,459.583,410.182,458.923z"/>
	<path d="M426.003,520.545c17.027,6.977,5.996,21.666-5.732,27.662c-7.769,3.96-16.047,4.789-24.626,5.789
		c-13.633,1.584-27.379,2.3-41.106,2.357c-16.839,0.057-36.751,1.075-53.156-3.602c-12.275-3.507-22.024-14.764-13.991-27.341
		c1.904-2.998,7.203-2.018,7.033,1.904c-0.226,4.752-1.376,9.428,2.678,12.841c3.47,2.942,9.409,3.658,13.727,4.205
		c10.993,1.414,22.477,1.207,33.526,1.414c18.837,0.339,37.826-0.528,56.493-3.168c5.355-0.754,30.283-6.939,21.289-15.406
		C419.422,524.637,422.231,518.999,426.003,520.545z"/>
	<path d="M362.08,591.03c9.409,2.81,18.064,8.825,18.008,19.573c-0.019,6.675-1.867,13.652-3.243,20.138
		c-12.521,58.775-30.49,116.663-47.8,174.156c-8.9,29.548-17.989,59.039-27.756,88.304c-4.733,14.18-8.504,32.037-17.367,44.387
		c-1.772,2.47-4.393,3.224-6.807,2.885c-5.468,4.243-12.37,5.563-19.554,5.676c-11.483,0.17-22.684-1.697-34.186-0.716
		c-15.33,1.282-30.698,1.584-46.066,1.678c-18.177,0.113-43.162,2.206-57.493-11.54c-15.292-14.708-4.921-39.673-1.358-57.078
		c5.827-28.397,10.503-55.909,21.892-82.798c10.993-25.908,23.702-50.912,34.809-76.763c4.865-11.314,10.597-21.779,19.252-30.641
		c9.654-9.899,17.404-20.308,23.891-32.527c6.015-11.276,11.012-23.061,16.82-34.431c3.658-7.203,9.409-22.382,17.631-25.343
		c6.92-2.47,15.669-2.621,22.891-3.639C302.853,588.56,335.172,582.94,362.08,591.03z M364.626,611.696
		c0.038-2.659,0.245-2.998-3.771-4.846c-6.072-2.772-13.539-3.13-20.063-3.47c-27.096-1.395-55.004,2.018-81.76,6.637
		c-9.899,14.595-17.103,30.66-25.267,46.273c-8.448,16.179-18.611,29.284-31.301,42.294c-11.936,12.219-17.027,28.643-24.456,43.652
		c-8.184,16.537-16.556,32.678-23.872,49.667c-7.524,17.423-15.123,34.299-19.328,52.91c-3.734,16.499-6.355,33.187-10.484,49.611
		c-3.979,15.82-7.618,33.621,11.276,40.39c13.124,4.714,28.001,3.809,41.71,3.771c18.554-0.057,37.166-2.225,55.645-2.112
		c11.37,0.075,27.36,4.563,37.901-1.622c-0.151-1.32,0.17-2.753,1.207-4.205c3.507-4.884,6.392-15.594,9.07-23.287
		c5.713-16.348,10.974-32.866,16.16-49.384c22.835-72.841,44.991-146.399,62.32-220.768c1.263-5.393,2.489-10.823,3.545-16.273
		c0.415-2.093,0.792-4.205,1.131-6.317C364.644,612.243,364.569,614.411,364.626,611.696z"/>
	<g>
		<path fill="#555661" d="M533.634,419.533c-0.208-6.279-2.112-11.351-6.864-15.104c-1.886-0.094-3.243-0.981-4.073-2.225
			c-37.693,1.075-75.708,0.585-113.439,0.698c-20.836,0.075-41.767,0.339-62.678,0.339c-19.516,0-39.051-0.245-58.492-1.075
			c-4.299,8.938-6.675,25.362,5.053,30.132c6.769,2.753,18.592,0.057,25.871-0.358c7.995-0.453,26.983,1.207,27.247,2.602
			c2.885,0.019,5.751,0.038,8.617,0.038c19.761-0.019,39.541-0.038,59.303-0.056c19.78-0.019,39.541-0.038,59.303-0.057
			c2.527,0,5.072-0.056,7.637-0.113c16.028-0.377,32.791-1.527,48.347,1.188c0.226-0.283,0.471-0.528,0.792-0.773
			C534.558,431.525,533.803,424.435,533.634,419.533z M306.209,416.949c-4.507-0.415-4.488-6.6,0-7.015
			c13.294-1.207,26.814-1.584,40.352-1.584c16.952,0,33.941,0.585,50.648,0.83c30.283,0.453,60.792-0.226,91,1.923
			c2.998,0.226,2.998,4.45,0,4.657c-28.133,1.999-56.55,1.565-84.777,1.867c-2.074,0-4.148,0.019-6.223,0.057
			C367.171,418.137,336.153,419.665,306.209,416.949z M497.939,428.81c-5.6,0.566-11.238,0.83-16.914,0.943
			c-12.69,0.208-25.475-0.415-38.071-0.415c-18.309,0.019-36.694,0.603-54.985-0.132c-4.016-0.151-4.016-6.072,0-6.241
			c5.167-0.207,10.333-0.302,15.519-0.339c13.143-0.094,26.323,0.207,39.466,0.226c18.215,0,36.864-1.32,54.985,0.528
			C501.427,423.738,501.427,428.452,497.939,428.81z"/>
		<path fill="#555661" d="M360.854,606.85c-6.072-2.772-13.539-3.13-20.063-3.47c-27.096-1.395-55.003,2.018-81.76,6.637
			c-9.899,14.595-17.103,30.66-25.267,46.273c-8.448,16.179-18.611,29.284-31.301,42.294
			c-11.936,12.219-17.027,28.643-24.457,43.652c-8.184,16.537-16.556,32.678-23.872,49.667
			c-7.524,17.423-15.123,34.299-19.328,52.91c-3.734,16.499-6.355,33.187-10.484,49.611c-3.979,15.82-7.618,33.621,11.276,40.39
			c13.124,4.714,28.001,3.809,41.71,3.771c18.555-0.057,37.166-2.225,55.645-2.112c11.37,0.075,27.36,4.563,37.901-1.622
			c-0.151-1.32,0.17-2.753,1.207-4.205c3.507-4.884,6.392-15.594,9.07-23.287c5.714-16.348,10.974-32.866,16.16-49.384
			c22.835-72.841,44.991-146.399,62.32-220.768c1.263-5.393,2.489-10.823,3.545-16.273c0.415-2.093,0.792-4.205,1.131-6.317
			c0.358-2.376,0.283-0.208,0.339-2.923C364.663,609.037,364.871,608.698,360.854,606.85z M180.495,757.775
			c18.272-18.743,43.935-33.922,68.259-43.407c3.469-1.358,6.694,4.073,3.733,6.392c-20.742,16.292-46.179,25.003-65.789,43.218
			C182.569,767.825,176.535,761.829,180.495,757.775z M143.499,859.41c16.952-10.918,33.375-22.627,49.988-34.036
			c15.745-10.823,31.773-22.703,49.46-30.113c4.28-1.791,5.808,4.507,2.866,6.788c-15.443,11.879-32.678,21.798-48.838,32.697
			c-16.216,10.955-32.47,21.817-49.196,31.98C143.084,869.592,138.917,862.351,143.499,859.41z M250.621,838.932
			c-18.14,11.238-37.052,21.1-55.041,32.659c-16.141,10.352-31.942,24.306-49.875,31.245c-4.13,1.584-6.977-5.317-2.998-7.109
			c18.253-8.24,34.356-22.929,51.119-33.866c16.933-11.031,34.752-23.061,54.023-29.51
			C251.847,831.012,253.959,836.858,250.621,838.932z M255.373,757.002c-15.952,11.578-34.149,20.176-51.025,30.34
			c-14.218,8.561-29.491,16.028-41.408,27.832c-3.507,3.469-8.825-1.867-5.412-5.412c11.483-11.936,26.097-19.893,39.994-28.624
			c17.517-10.993,35.393-21.836,54.438-30C255.957,749.422,258.956,754.4,255.373,757.002z M286.504,666.228
			c-10.031,8.353-22.213,14.123-33.526,20.497c-12.125,6.826-23.947,14.086-35.072,22.439c-3.96,2.998-9.126-3.809-5.28-6.845
			c20.798-16.386,45.387-32.829,70.202-42.389C286.297,658.591,289.333,663.871,286.504,666.228z"/>
	</g>
	<path fill="#555661" d="M357.423,980.712c3.243,3.677,3.281,6.694,1.565,9.145c-0.019-0.038-0.038-0.075-0.057-0.113
		c-2.715-4.431-7.279-8.052-11.257-11.314c-3.017-2.489-6.26-4.676-9.805-6.26c1.377-0.886,2.696-1.848,3.922-2.923
		C346.184,974.131,352.954,975.658,357.423,980.712z"/>
	<path fill="#555661" d="M353.18,994.326c-2.866,1.414-6.204,2.508-9.24,3.338c-1.282-1.546-3.394-2.206-5.091-3.262
		c-3.281-2.055-6.241-4.639-9.126-7.203c-3.3-2.942-6.487-6.015-9.617-9.145c1.508-0.226,3.017-0.453,4.507-0.735
		c1.282-0.226,2.527-0.547,3.752-0.886c0.377,1.263,1.301,2.376,2.923,2.904C339.943,982.107,345.128,990.856,353.18,994.326z"/>
	<path fill="#BDBEC7" d="M309.452,258.482c9.9,0.038,19.799,0.057,29.68,0.075c-0.132,0.264-0.245,0.566-0.302,0.886
		c-4.035,18.837-13.69,35.732-18.479,54.268c-0.189,0.754-0.207,1.452-0.113,2.074c-2.15-0.038-4.299-0.057-6.449-0.094
		c-6.6-0.094-13.218-0.113-19.837-0.151c5.94-17.8,11.597-35.619,15.839-53.91C310.075,260.405,309.905,259.349,309.452,258.482z"/>
	<path fill="#555661" d="M331.929,1000.341c-3.375,0.66-6.769,1.263-10.145,1.81c0.264-0.999,0.17-2.055-0.453-2.885
		c-3.564-4.733-10.069-8.014-14.632-11.861c-2.583-2.169-5.072-4.45-7.524-6.769c3.47-0.321,6.939-0.66,10.39-1.075
		c5.242,5.412,10.673,10.673,16.386,15.594C327.347,996.343,329.497,998.436,331.929,1000.341z"/>
	<path fill="#555661" d="M327.14,328.099c-3.847,15.104-10.484,29.265-14.972,44.142c-6.996,0-13.991,0.019-21.006,0.038
		c4.978-14.18,8.523-28.812,12.332-43.35c0.057-0.226,0.075-0.415,0.094-0.622C311.451,328.269,319.295,328.193,327.14,328.099z"/>
	<path fill="#555661" d="M302.023,994.816c2.998,2.828,6.656,6.505,10.654,8.674c-24.739,3.281-49.573,3.828-74.727,3.903
		c-31.697,0.113-63.979,1.49-95.563-1.603c-4.789-0.453-9.598-0.415-14.387-0.924c-7.674-0.811-6.279-2.715-3.752-8.73
		c1.942-4.639,2.508-8.994,0.471-12.219c0.415,0,0.83-0.019,1.263-0.019c10.88-0.17,22.345-2.036,33.13-0.151
		c10.446,1.829,20.836,2.319,31.471,2.036c23.929-0.641,47.914-1.999,71.842-2.998c8.655-0.358,17.404-0.735,26.154-1.32
		C292.972,985.991,297.422,990.479,302.023,994.816z"/>
	<path fill="#BDBEC7" d="M301.061,258.444c-0.094,0.226-0.189,0.453-0.264,0.698c-4.846,18.969-11.672,37.241-18.027,55.72
		c-0.075,0.226-0.094,0.434-0.151,0.641c-7.429,0-14.859,0.019-22.269,0.075c4.318-18.159,12.106-34.922,12.69-53.853
		c0.057-1.603-0.547-2.753-1.452-3.507C281.413,258.312,291.237,258.388,301.061,258.444z"/>
	<path fill="#555661" d="M289.748,328.344c1.697,0,3.394,0,5.091-0.019c-4.28,14.821-8.636,29.585-14.086,44.01
		c-6.072,0.038-12.143,0.075-18.196,0.132c4.035-14.463,9.334-28.529,9.956-43.69c0-0.189-0.019-0.339-0.038-0.49
		C278.227,328.306,283.997,328.344,289.748,328.344z"/>
	<path d="M282.827,659.93c3.47-1.339,6.505,3.941,3.677,6.298c-10.031,8.353-22.213,14.123-33.526,20.497
		c-12.125,6.826-23.947,14.086-35.073,22.439c-3.96,2.998-9.126-3.809-5.28-6.845C233.424,685.933,258.013,669.49,282.827,659.93z"
		/>
	<path fill="#555661" d="M242.324,328.005c7.26,0.094,14.538,0.17,21.798,0.226c-0.038,0.189-0.094,0.358-0.094,0.547
		c-1.32,14.651-6.543,28.624-10.578,42.69c-0.264,0.339-0.471,0.698-0.641,1.075c-6.883,0.075-13.784,0.132-20.685,0.207
		c1.716-5.883,2.602-12.125,3.96-17.989C238.138,345.862,240.665,336.98,242.324,328.005z"/>
	<path fill="#BDBEC7" d="M265.668,258.18c-1.056,0.735-1.829,1.904-1.961,3.545c-1.301,16.989-14.048,52.213-13.501,53.966
		c-8.655,0.094-17.31,0.207-25.984,0.339c2.678-8.316,3.941-17.367,6.015-25.776c2.451-9.918,5.28-19.837,7.014-29.925
		c0.17-0.924,0.075-1.772-0.17-2.527C246.605,257.954,256.146,258.086,265.668,258.18z"/>
	<path d="M251.96,751.138c3.998-1.716,6.996,3.262,3.413,5.864c-15.952,11.578-34.149,20.176-51.025,30.34
		c-14.218,8.561-29.491,16.028-41.408,27.832c-3.507,3.47-8.825-1.867-5.412-5.412c11.483-11.936,26.097-19.893,39.994-28.624
		C215.04,770.145,232.915,759.302,251.96,751.138z"/>
	<path d="M248.754,714.368c3.47-1.358,6.694,4.073,3.734,6.392c-20.742,16.292-46.179,25.003-65.789,43.218
		c-4.13,3.847-10.163-2.15-6.204-6.204C198.767,739.032,224.43,723.853,248.754,714.368z"/>
	<path d="M247.849,832.351c3.998-1.339,6.109,4.507,2.772,6.581c-18.14,11.238-37.052,21.1-55.041,32.659
		c-16.141,10.352-31.942,24.306-49.875,31.245c-4.13,1.584-6.977-5.317-2.998-7.109c18.253-8.24,34.356-22.929,51.119-33.866
		C210.759,850.83,228.578,838.8,247.849,832.351z"/>
	<path d="M242.947,795.261c4.28-1.791,5.808,4.507,2.866,6.788c-15.443,11.879-32.678,21.798-48.838,32.697
		c-16.216,10.955-32.47,21.817-49.196,31.98c-4.695,2.866-8.862-4.375-4.28-7.316c16.952-10.918,33.375-22.627,49.988-34.035
		C209.232,814.551,225.26,802.672,242.947,795.261z"/>
	<path fill="#555661" d="M209.647,327.552c7.844,0.113,15.688,0.226,23.551,0.321c-2.489,7.995-4.186,16.311-6.015,24.438
		c-1.49,6.581-3.734,13.633-4.375,20.534c-7.656,0.075-15.292,0.151-22.948,0.226c2.678-6.034,3.677-13.35,5.035-19.403
		C206.818,345.032,208.289,336.283,209.647,327.552z"/>
	<path d="M232.896,518.433c0.49,16.857-0.434,33.734-6.505,49.648c-5.808,15.198-14.142,29.284-24.343,41.898
		c-2.583,3.187-8.033-0.245-6.807-3.941c4.507-13.539,12.389-25.173,18.347-38.033c6.826-14.727,8.712-30.038,8.768-46.122
		c0.057-15.104-1.188-29.34-7.674-43.181c-5.581-11.861-13.878-22.269-22.326-32.169c-3.413-4.016,2.263-9.824,5.827-5.845
		c9.862,10.993,19.177,22.552,25.739,35.864C230.52,489.942,232.481,503.669,232.896,518.433z"/>
	<path fill="#BDBEC7" d="M227.975,257.671c0,0.038-0.019,0.057-0.038,0.094c-2.979,10.39-5.374,21.025-7.92,31.528
		c-2.112,8.73-4.959,17.857-5.374,26.889c-9.786,0.151-19.592,0.302-29.378,0.453c4.186-7.788,5.6-17.744,7.58-26.097
		c2.583-10.88,4.488-21.892,5.996-32.961c0.019-0.17,0-0.339,0.019-0.509C208.553,257.294,218.264,257.501,227.975,257.671z"/>
	<path fill="#BDBEC7" d="M203.066,245.566l0.038,3.13c-7.806,0.075-15.594,0.207-23.401,0.415c-4.808,0.151-4.827,7.354,0,7.486
		c3.413,0.094,6.807,0.17,10.22,0.245c-1.697,10.465-3.847,20.836-6.223,31.169c-2.131,9.24-6.373,19.196-6.449,28.737
		c-25.098,0.339-50.195,0.528-75.293,0.189c0.075-7.373,0.264-14.746,0.528-22.137c5.563,1.565,12.37,0.999,17.932,0.698
		c6.355-0.339,13.935-0.641,19.403-4.243c3.319-2.187,1.886-6.939-1.98-7.241c-6.373-0.509-13.312,1.056-19.724,1.49
		c-4.865,0.321-10.484-0.038-15.33,1.207c0.132-2.847,0.245-5.713,0.396-8.58c0-0.17,0.019-0.358,0.019-0.528
		c6.279,0.283,12.935,0.603,18.988-1.075c3.206-0.867,3.206-5.6,0-6.468c-5.902-1.622-12.389-1.358-18.536-1.094
		c0.207-3.828,0.415-7.674,0.603-11.521c4.525,0.358,9.108,0.339,13.633,0.547c6.901,0.321,14.161,0.981,20.912-0.717
		c3.394-0.867,3.375-6.015,0-6.883c-2.093-0.547-4.243-0.886-6.411-1.094l0.509-4.488
		C155.831,247.432,180.042,245.471,203.066,245.566z"/>
	<path fill="#555661" d="M201.369,327.42c-1.471,8.014-3.074,15.99-4.808,23.947c-1.508,7.015-4.507,14.5-5.223,21.779
		c-28.68,0.283-57.342,0.453-86.003,0.321c-3.451-14.236-3.281-29.227-3.394-43.784c0-0.905,0-1.81,0-2.715
		C135.07,326.515,168.22,326.93,201.369,327.42z"/>
	<path d="M191.243,412.122c1.245,2.772,1.301,6.015,0.358,8.9c-0.603,1.848-1.622,3.564-3.017,4.921
		c-3.583,3.488-9.39,4.45-13.897,2.3c-7.354-3.488-9.466-13.463-2.319-18.309c2.093-1.414,4.582-2.168,7.052-2.734
		c2.244-0.49,4.62-0.849,6.788-0.094C188.509,407.917,190.262,409.897,191.243,412.122z"/>
	<path fill="#555661" d="M186.586,516.981c1.961,18.064,1.565,36.562-7.995,52.571c-6.317,10.559-13.69,20.44-21.232,30.17
		c-0.622-0.396-1.32-0.717-2.187-0.924c-5.959-1.414-9.598-3.432-8.108-9.881c1.508-6.562,6.449-12.671,10.201-18.102
		c7.524-10.899,15.651-21.458,20.534-33.885c4.601-11.71,6.487-24.494,6.166-37.184
		C185.115,505.573,185.982,511.381,186.586,516.981z"/>
	<path d="M152.041,651.464c2.602-3.074,6.769,0.867,5.223,4.035c-13.407,27.737-35.695,49.479-45.557,79.253
		c-1.678,5.072-9.598,2.96-8.052-2.225C112.613,702.375,131.865,675.223,152.041,651.464z"/>
	<path d="M153.832,413.027c3.281,3.828-1.075,10.654-5.713,7.41c-12.803-8.994-25.022-4.903-39.466-5.412
		c-3.979-0.132-4.808-5.808-0.943-6.939C121.833,403.976,142.971,400.356,153.832,413.027z"/>
	<path fill="#BDBEC7" d="M148.421,236.213c0,0.057,0.019,0.113,0.038,0.189c-5.864,0.226-11.691,0.641-17.423,1.358
		c-4.375,0.547-4.393,6.279,0,6.845c0.622,0.075,1.245,0.151,1.867,0.207l-0.509,4.488c-4.808-0.49-9.749-0.396-14.5-0.603
		c-4.431-0.189-8.862-0.471-13.275-0.321c0.132-6.43-0.339-13.369,1.339-19.573c0.415-1.565,1.056-2.904,1.886-4.073
		c7.637,1.169,35.544,2.527,40.315,1.772C148.062,229.764,148.157,233.026,148.421,236.213z"/>
	<path fill="#555661" d="M111.972,775.688c-1.716,4.959-3.375,9.918-4.921,14.953c-0.075,0.283-0.151,0.547-0.245,0.83
		c-0.038,0-0.057,0-0.094,0c-6.468,0.754-11.276,7.014-16.65,10.484c-3.243,2.074-6.619,3.997-10.05,5.77
		c0.849-7.203,1.735-14.387,2.828-21.553c6.543-1.659,13.03-3.488,19.29-6.015C105.146,778.932,108.766,777.555,111.972,775.688z"/>
	<path fill="#555661" d="M102.845,805.349c-2.866,10.578-5.374,21.232-7.486,31.924c-4.978,1.263-9.862,4.978-14.142,7.58
		c-2.583,1.565-5.11,3.262-7.505,5.129c1.395-7.995,2.791-15.99,3.96-24.042c0.339-2.376,0.66-4.771,0.962-7.147
		c5.317-2.168,10.427-4.771,15.349-7.806C96.396,809.497,99.79,807.593,102.845,805.349z"/>
	<path fill="#555661" d="M93.361,848.134c-1.339,7.844-2.489,15.688-3.451,23.57c-4.771,2.847-9.202,6.562-13.746,9.56
		c-2.64,1.735-5.374,3.262-8.127,4.733c0.943-7.769,2.15-15.481,3.451-23.174c0.377-0.207,0.735-0.434,1.094-0.792
		c4.243-4.261,9.409-7.429,14.557-10.503C89.061,850.378,91.249,849.322,93.361,848.134z"/>
	<path fill="#555661" d="M88.458,981.805c0.132,1.377,0.679,2.432,1.452,3.168c-3.828-2.206-7.109-5.449-10.05-8.674
		c-6.279-6.826-15.745-24.306-15.745-25.644c0.113-5.732,0.264-11.483,0.453-17.216c7.203-1.754,14.934-5.638,21.76-10.427
		C85.969,942.566,86.685,962.176,88.458,981.805z"/>
	<path fill="#555661" d="M88.514,884.319c-0.83,8.768-1.433,17.555-1.81,26.361c-7.203,4.393-13.859,9.749-21.722,13.03
		c0.415-8.881,0.999-17.744,1.829-26.625c4.356-1.772,8.58-4.544,12.143-6.732C81.953,888.505,85.309,886.506,88.514,884.319z"/>
</g>
</svg>
